# Blender 5.1.0
# www.blender.org
mtllib body.mtl
o body
v -3.766872 14.224542 -4.092055
v -2.053734 14.006335 -3.805259
v 4.315643 15.980391 -4.097320
v 2.778314 16.211823 -3.759750
v 6.647958 16.474146 -3.451499
v 7.991920 19.883625 -3.395857
v 6.390453 18.494526 -3.530638
v 7.365987 22.092411 0.403507
v 5.484844 13.071384 -0.258035
v 2.581826 20.468098 -0.478551
v -5.097386 10.464576 -0.496377
v -6.024647 19.683205 -0.246220
v -4.690406 20.268614 0.071493
v 6.583624 13.598888 -0.733396
v 7.821016 16.072123 -4.795781
v 6.858806 13.732953 -1.247157
v 6.944221 13.975989 -2.327487
v 7.637824 14.849726 -2.895187
v 8.980179 21.434179 -2.377480
v -5.020772 19.428476 -2.327631
v -5.958815 18.520548 -2.967303
v -2.889772 10.601882 -2.341626
v -3.801120 10.468147 -1.823417
v -9.841410 15.136317 -1.697780
v -10.020700 13.673700 -2.021567
v -10.233226 14.491281 -1.125747
v 2.816520 19.217823 -2.812083
v 0.085376 19.864378 -1.271869
v 2.908847 11.600060 -1.089173
v 2.080959 11.911400 -2.756120
v 3.962559 20.795254 -0.707090
v -1.444450 10.557998 -1.732688
v 6.329569 21.736185 -1.170682
v 7.233100 21.648510 -1.916259
v -9.740663 12.151403 -1.268803
v -9.490633 13.869664 -2.768647
v 7.769907 16.722588 -3.465575
v 4.048450 15.002582 -4.043994
v 2.306143 12.696125 -3.182087
v 2.867086 11.921579 -2.949928
v -7.301421 13.955197 -3.942810
v -7.980510 15.138023 -3.582513
v -8.599944 16.075979 -2.967880
v -4.183493 18.748936 -3.131952
v -3.787153 16.063692 -4.004786
v -2.195035 16.457277 -3.731023
v 2.281666 17.742922 -3.401352
v -10.556513 13.321697 -0.538503
v -9.132792 7.824922 -0.066973
v -9.037157 8.256254 -0.137380
v 0.071829 14.543676 3.693976
v 0.445714 13.444793 3.575868
v -1.928727 11.707273 3.248185
v -0.334891 11.486288 2.951333
v 2.556471 17.045843 3.628603
v 4.279077 16.312346 4.058291
v 5.694857 18.562340 3.597703
v 6.628400 15.527278 3.348564
v 7.738049 16.605072 3.448452
v 2.702725 11.671665 0.563040
v -9.693092 15.675194 0.345657
v -5.582510 10.439647 0.768285
v 10.452763 21.338945 1.147183
v -3.510018 20.329472 0.853625
v 7.834056 16.068478 4.804548
v 7.957001 15.924958 4.561907
v 7.912106 16.343435 3.703048
v 7.961426 15.870225 4.293592
v 8.457144 15.369885 3.798023
v 6.524440 21.319916 2.328360
v 6.944643 13.777420 1.188582
v 7.948662 14.402262 2.014504
v -5.789155 19.306334 2.046819
v 7.895048 13.998206 0.330822
v -9.903908 14.687354 2.046959
v 2.496974 11.773599 2.552996
v 1.977764 11.427476 1.705359
v 6.091431 20.551033 2.952490
v -2.317926 10.545919 1.751345
v 7.207683 21.569202 2.078016
v -4.023736 19.652010 2.350812
v 2.534222 11.461363 1.805353
v 2.804797 11.499056 1.180345
v 7.405472 15.301617 3.214234
v 7.994213 15.503742 3.568327
v 6.355508 17.903023 3.515891
v 2.742319 14.952789 3.689238
v 3.991844 14.415147 3.946350
v -7.506083 16.016016 3.661460
v -5.708395 17.369160 3.674707
v 0.008767 16.484589 3.586679
v -10.595787 12.815187 0.316639
v -9.978099 11.992451 0.345193
v 0.507127 13.459512 -3.577888
v -1.983375 11.917521 -3.334488
v -3.131514 11.892768 -3.600643
v 4.366135 17.316154 -3.950227
v 4.539616 18.592560 -3.639024
v 6.437648 21.949434 0.212878
v 3.928090 20.824120 0.521837
v 2.729623 11.673401 -0.713644
v -10.200102 13.209220 0.569514
v -4.049427 10.365532 -0.683795
v -5.681873 19.829491 -0.743119
v 8.200582 22.045937 -0.230006
v 8.156196 15.409887 -3.778807
v 8.535258 20.899063 -3.753280
v 7.812941 15.800961 -4.544367
v -2.648542 10.960415 -2.941670
v 8.251130 20.980766 -2.940164
v 10.097296 21.447231 -1.430985
v -4.509984 20.116520 -1.186851
v -6.117144 19.332207 -1.585960
v 8.367797 14.955078 -3.251373
v -3.770523 10.890122 -2.968651
v -7.791975 17.244490 -2.837684
v -8.744611 16.619453 -2.197437
v 0.239974 19.402607 -2.069451
v 2.096921 11.473793 -1.792376
v -0.452507 10.834989 -2.186878
v 7.283149 22.004070 -0.947817
v -1.638589 19.505268 -2.282490
v 0.330605 18.726091 -2.752755
v -2.756692 20.377777 -0.737358
v -9.220297 11.699392 -0.625184
v 7.050381 14.796968 -3.157677
v 8.347901 19.645737 -3.574816
v -7.367694 16.852634 -3.414698
v -5.427537 18.008265 -3.423530
v -0.077022 18.026749 -3.155581
v -10.498629 11.956348 -0.073665
v -2.053435 13.416806 3.743124
v -3.431044 12.731912 3.903854
v 4.284475 17.962605 3.777044
v 5.167775 19.586718 3.335447
v 4.640259 15.469122 4.045671
v 7.482373 19.513453 3.404432
v 8.240771 19.389557 3.530339
v 3.654748 11.864011 0.681362
v -8.206241 11.311172 -0.531093
v -4.560890 10.347673 0.690058
v -3.792473 10.465289 1.751080
v -3.962112 10.359305 0.750878
v 6.458716 13.491344 0.523732
v -2.997190 11.406700 3.381670
v 8.399084 21.059856 2.874296
v 8.720719 21.415918 2.317622
v 8.187373 20.648422 3.167234
v 7.806692 15.419579 3.400534
v 9.144223 21.580770 3.408452
v 9.324491 21.495060 1.808229
v -5.862978 18.420877 3.077463
v -5.018720 19.600624 2.174655
v 7.840042 14.715454 2.694647
v -2.738569 10.637667 2.412113
v -3.683995 10.809455 2.802119
v -7.179302 17.844564 2.795550
v -8.934473 11.319057 1.038810
v -10.062084 13.785819 1.997170
v 1.273740 20.197533 0.456139
v 0.137820 19.733509 1.528742
v 0.299990 19.173382 2.382545
v 6.972070 14.056540 2.454668
v -0.054252 10.751569 1.678756
v 3.977566 20.388815 1.919297
v 6.228904 21.694401 1.182425
v -2.237538 20.144636 1.313290
v 0.252302 20.152191 0.330609
v -2.975038 10.951667 2.953081
v 7.454719 22.000732 1.002839
v -9.306745 11.456262 1.341351
v -9.387136 11.839818 0.338868
v -9.757441 12.220526 1.572537
v -9.409323 13.871961 2.880021
v 6.775199 14.332210 3.098339
v 2.193543 11.880578 2.612844
v 2.710012 12.959636 3.240301
v -6.841321 14.328900 4.040921
v -7.775187 16.595118 3.311566
v -6.239618 15.129529 4.069006
v -3.972992 18.190456 3.419522
v -4.140856 15.157534 4.141779
v -2.073137 15.644185 3.801602
v -10.244705 14.414860 1.001978
v -10.186708 13.612338 0.796256
v -10.478937 13.821655 0.430514
v -9.006598 7.914470 0.094918
v -9.247641 8.012630 0.059021
v 7.493213 14.331356 -2.153345
v -6.392436 18.571505 -2.576328
v 2.584128 11.450508 -1.734305
v 3.871772 20.341473 -1.882938
v 5.227479 13.831244 -3.766504
v -2.257923 20.471903 -0.005568
v -7.691498 11.184228 0.370786
v -8.289141 11.104352 0.872360
v 8.521813 20.915462 3.763324
v 7.573630 14.882681 2.934450
v 9.106268 21.382904 2.823109
v -8.369637 16.714228 2.714500
v -2.908991 17.233307 3.637972
v -9.838978 10.175869 0.216553
v -0.753698 11.195934 -2.804302
v 7.734905 15.341963 -3.291678
v -3.542940 13.174036 -3.972418
v -6.065214 14.360933 -4.099176
v 7.664535 16.608038 -4.144781
v 7.947094 15.798731 -3.756418
v 2.746011 14.199142 -3.588645
v 4.636212 12.202096 0.542757
v 8.829530 14.003950 0.270327
v -4.742535 12.034562 -3.739222
v 4.533583 12.565303 0.192471
v 0.494365 20.148342 -0.316399
v -10.231863 13.415173 -0.747941
v -10.162092 13.466464 -0.774147
v -8.905977 16.842253 0.139750
v 7.679332 13.959998 -0.335900
v -3.884837 19.857355 -1.948454
v 8.231763 14.359837 -1.823880
v -8.622799 17.025082 -1.626396
v 2.036077 19.782700 -1.860454
v 0.263793 10.799633 -1.293108
v 6.395842 21.339256 -2.230196
v 6.685663 20.915405 -2.854187
v 2.670661 11.540131 -2.389645
v -9.447285 14.937590 -2.564230
v -6.703691 15.889549 -3.870410
v -4.421571 16.915321 -3.891859
v 0.648887 16.800419 -3.507984
v -9.907215 10.316369 -0.210233
v -10.311819 13.946597 -0.971434
v -9.946837 11.740404 -0.366416
v -6.497136 19.206442 0.719946
v -9.488577 15.741713 1.805603
v -7.903706 17.634489 2.018726
v 2.877784 19.544712 2.531850
v 1.925062 19.956879 1.525942
v -0.571280 10.990193 2.531386
v -0.892411 10.581805 0.968378
v 7.770981 17.239424 4.049454
v 0.078598 18.356213 2.998540
v -9.106129 8.775864 0.156653
v 7.970835 16.831015 -3.691621
v 6.580375 14.188577 -3.187251
v -3.622317 19.106627 2.860837
v -8.805513 15.463057 3.004689
v 5.183429 19.397818 -3.412823
v 8.651163 20.946159 -3.248527
v 0.826989 15.368805 -3.662673
v -9.085462 8.953232 -0.061330
v 2.497681 18.717457 3.051654
v 8.637701 20.859982 3.360405
v -10.352418 12.021568 0.398348
v 1.273740 20.197533 0.456139
v 0.252302 20.152191 0.330609
v 0.494365 20.148342 -0.316399
vn 0.0243 -0.5441 -0.8387
vn -0.2520 0.4432 -0.8603
vn -0.2553 0.4371 -0.8624
vn -0.1966 0.1147 -0.9738
vn 0.1441 0.1029 -0.9842
vn 0.2730 -0.0322 -0.9615
vn 0.1057 -0.0255 -0.9941
vn -0.2662 0.2925 -0.9184
vn 0.0058 0.9978 -0.0656
vn 0.1211 0.9919 0.0394
vn 0.4399 -0.8980 0.0080
vn -0.2629 -0.9647 0.0142
vn -0.6690 0.7291 -0.1448
vn 0.0096 -0.9985 0.0541
vn 0.0804 -0.9966 0.0167
vn 0.1197 -0.9927 -0.0116
vn 0.0228 -0.9918 -0.1255
vn -0.0818 0.9956 0.0459
vn 0.6335 -0.5361 -0.5579
vn -0.0544 0.8108 -0.5828
vn -0.1536 0.6702 -0.7261
vn -0.0597 -0.9361 -0.3465
vn 0.0662 -0.8680 -0.4920
vn -0.4392 0.5595 -0.7029
vn -0.8360 0.5425 -0.0824
vn -0.7844 0.4229 -0.4538
vn -0.9208 -0.3542 -0.1632
vn -0.9580 0.0587 -0.2808
vn -0.1689 0.9079 -0.3836
vn -0.0669 0.7046 -0.7065
vn -0.0095 -0.9823 0.1873
vn 0.2719 -0.9280 -0.2546
vn 0.3154 -0.9488 0.0184
vn 0.2105 -0.7957 -0.5679
vn -0.2331 0.7403 -0.6306
vn 0.1173 0.7135 -0.6908
vn 0.1023 0.8693 -0.4835
vn -0.2041 0.9125 -0.3546
vn -0.8245 0.1385 -0.5487
vn -0.9872 0.1357 -0.0833
vn -0.0963 -0.1220 -0.9879
vn 0.0246 -0.1668 -0.9857
vn -0.2866 -0.0766 -0.9550
vn 0.0894 -0.2843 -0.9545
vn -0.1521 0.0839 -0.9848
vn -0.5775 0.1450 -0.8034
vn -0.4652 0.2494 -0.8494
vn 0.1106 0.2111 -0.9712
vn 0.0390 0.2972 -0.9540
vn -0.0726 0.2355 -0.9692
vn -0.0549 -0.3941 -0.9174
vn -0.9687 0.2436 -0.0481
vn 0.8261 -0.2644 -0.4977
vn 0.9795 0.1006 0.1748
vn 0.9971 0.0719 -0.0254
vn 0.2359 -0.2543 0.9379
vn 0.2012 -0.3014 0.9320
vn -0.0224 0.0270 0.9994
vn -0.1715 0.1661 0.9711
vn 0.0539 0.1676 0.9844
vn 0.2028 0.0723 0.9765
vn 0.1958 0.0749 0.9778
vn -0.0214 0.2376 0.9711
vn -0.9299 0.2167 -0.2973
vn 0.9988 -0.0443 0.0198
vn -0.9142 0.4051 0.0096
vn 0.3916 -0.8975 0.2029
vn -0.6712 -0.7352 0.0948
vn 0.1514 0.9802 0.1275
vn -0.2229 0.9386 0.2633
vn -0.3717 0.7171 0.5895
vn 0.0543 -0.9939 0.0961
vn -0.5846 0.7335 0.3467
vn -0.7465 0.4134 0.5213
vn -0.2725 0.7719 0.5744
vn -0.1340 0.6194 0.7735
vn -0.0129 -0.9229 0.3848
vn -0.3034 0.6977 0.6490
vn -0.2046 0.9136 0.3513
vn -0.0148 0.9129 0.4080
vn -0.7839 0.1126 -0.6106
vn 0.1952 -0.5612 0.8044
vn -0.5198 0.2517 0.8164
vn -0.3112 0.4343 0.8453
vn -0.2985 0.3881 0.8719
vn -0.0865 0.3223 0.9427
vn -0.0659 0.3014 0.9512
vn -0.9476 0.0749 0.3107
vn 0.7314 0.0077 0.6819
vn -0.0624 -0.0753 0.9952
vn 0.0762 -0.0570 -0.9955
vn 0.0399 -0.2184 -0.9750
vn 0.2068 -0.4910 -0.8463
vn -0.0709 -0.1278 -0.9893
vn 0.0600 -0.2604 -0.9636
vn -0.0907 0.0958 -0.9913
vn -0.2455 0.5395 -0.8054
vn -0.2222 0.1533 -0.9629
vn 0.0689 0.2275 -0.9713
vn 0.0599 0.0278 -0.9978
vn -0.3882 0.9084 0.1554
vn 0.5512 -0.8222 -0.1418
vn 0.9828 0.1833 -0.0218
vn -0.2602 -0.9653 0.0226
vn -0.5829 0.7950 -0.1680
vn 0.3283 -0.9433 -0.0481
vn -0.4345 -0.7609 -0.4819
vn -0.6895 -0.3338 -0.6428
vn -0.0660 0.8045 -0.5903
vn 0.1572 0.9673 -0.1989
vn 0.1476 0.9583 -0.2446
vn -0.0476 0.9330 -0.3566
vn -0.0521 0.7354 -0.6756
vn 0.1316 -0.9685 -0.2114
vn -0.3297 0.8664 -0.3749
vn -0.3431 0.8758 -0.3395
vn -0.5996 0.7065 -0.3760
vn -0.4798 0.6269 -0.6138
vn -0.8829 0.2232 -0.4131
vn -0.8187 0.5360 -0.2061
vn -0.7840 0.4284 -0.4494
vn -0.9565 -0.2501 -0.1500
vn -0.6843 0.5291 -0.5017
vn -0.1198 0.8489 -0.5147
vn -0.4423 -0.8789 -0.1786
vn 0.2805 -0.8722 -0.4007
vn -0.3761 0.7742 -0.5091
vn -0.4027 0.8640 -0.3023
vn -0.3857 0.8558 -0.3447
vn 0.0935 0.9774 -0.1895
vn -0.1829 0.9259 -0.3305
vn 0.0678 0.6356 -0.7691
vn 0.0726 0.8900 -0.4501
vn -0.8246 -0.0165 0.5655
vn -0.9247 0.0450 -0.3780
vn -0.2137 0.0051 -0.9769
vn -0.2873 0.1243 -0.9497
vn -0.2786 0.4613 -0.8424
vn -0.0639 0.1215 -0.9905
vn 0.1699 0.0396 -0.9847
vn 0.0639 0.1151 -0.9913
vn -0.1285 0.5502 -0.8251
vn -0.9390 -0.3418 0.0376
vn -0.9044 -0.2830 0.3193
vn -0.9935 -0.0722 -0.0884
vn 0.9555 0.2887 -0.0603
vn 0.9305 0.2358 0.2801
vn -0.1966 -0.1153 -0.9737
vn 0.0675 -0.0839 0.9942
vn 0.0673 -0.2729 0.9597
vn 0.0368 -0.0259 0.9990
vn 0.1679 -0.0244 0.9855
vn -0.2120 -0.0255 0.9769
vn -0.2428 0.3088 0.9196
vn 0.1129 -0.0102 0.9936
vn -0.0222 0.2177 0.9758
vn -0.1605 0.0205 0.9868
vn 0.1273 -0.6697 -0.7317
vn 0.2244 -0.9282 -0.2967
vn -0.2304 0.9579 0.1714
vn -0.1601 0.9781 -0.1326
vn -0.5180 -0.8120 -0.2691
vn -0.3608 -0.9296 0.0751
vn -0.9574 -0.2887 0.0118
vn -0.4324 -0.6485 0.6265
vn -0.7712 0.5619 -0.2992
vn 0.2720 -0.6527 0.7071
vn 0.0337 0.9248 0.3789
vn 0.1275 0.9460 0.2981
vn -0.1628 0.6704 0.7239
vn -0.0852 0.5423 0.8359
vn -0.3801 0.8970 0.2256
vn -0.6392 0.6428 0.4222
vn -0.5464 0.5288 0.6495
vn -0.7601 0.3860 0.5227
vn -0.7503 0.5961 0.2859
vn -0.9656 -0.2239 0.1325
vn -0.7666 0.6255 0.1452
vn -0.1519 0.8558 0.4945
vn -0.1020 0.8228 0.5591
vn -0.1020 0.5624 0.8205
vn 0.2825 -0.8656 0.4135
vn -0.2239 0.9128 0.3417
vn 0.1945 -0.9809 0.0049
vn 0.1453 -0.9892 -0.0210
vn -0.3693 0.8108 0.4541
vn -0.4095 0.8668 0.2845
vn 0.0912 0.9668 0.2385
vn 0.1326 -0.9307 0.3409
vn 0.0950 -0.9760 0.1960
vn 0.0270 -0.9996 0.0033
vn -0.1849 0.9670 0.1753
vn -0.2086 0.9559 0.2065
vn 0.0734 0.7095 0.7009
vn 0.0542 0.9693 0.2397
vn -0.8043 0.1089 0.5841
vn -0.7256 0.2244 0.6505
vn -0.4057 -0.0604 0.9120
vn -0.8557 -0.0703 0.5128
vn -0.7590 0.1182 0.6403
vn 0.0796 -0.2887 0.9541
vn 0.0967 -0.2202 0.9707
vn -0.1642 0.2087 0.9641
vn -0.0992 0.4803 0.8715
vn 0.0236 0.2226 0.9746
vn 0.1222 0.1650 0.9787
vn 0.0692 0.4999 0.8633
vn 0.0856 0.3112 0.9465
vn 0.0504 0.1285 0.9904
vn 0.9634 -0.1551 0.2188
vn 0.1139 -0.4548 -0.8833
vn 0.2218 -0.2054 -0.9532
vn 0.2252 -0.2070 -0.9521
vn 0.1548 -0.0792 -0.9848
vn 0.2676 -0.0036 -0.9635
vn -0.0470 0.3048 -0.9513
vn -0.0177 0.0233 -0.9996
vn -0.0636 0.3996 -0.9145
vn -0.0668 0.3961 -0.9158
vn -0.5279 0.4291 -0.7329
vn -0.4219 0.0496 -0.9053
vn -0.1407 0.9885 -0.0560
vn -0.2400 0.9621 -0.1295
vn -0.4123 0.9104 -0.0329
vn -0.3858 0.9159 -0.1110
vn 0.2933 -0.9560 0.0049
vn -0.2351 0.9715 -0.0294
vn -0.3625 -0.9292 0.0726
vn -0.9521 -0.3058 0.0018
vn -0.7042 0.7089 -0.0395
vn 0.1082 -0.9920 -0.0657
vn -0.4005 0.9163 -0.0065
vn -0.1121 0.9845 -0.1351
vn 0.3770 -0.8991 -0.2223
vn 0.8597 -0.3540 0.3681
vn 0.3262 -0.9439 -0.0514
vn -0.0853 0.9939 -0.0697
vn 0.4199 -0.9069 -0.0359
vn -0.8479 -0.4388 -0.2976
vn 0.0238 0.9381 -0.3456
vn -0.2952 -0.5633 -0.7717
vn -0.1720 -0.7914 -0.5866
vn 0.5686 -0.8110 -0.1375
vn 0.2990 -0.8086 -0.5067
vn 0.3641 -0.6267 -0.6889
vn -0.3976 0.7777 -0.4868
vn -0.1815 0.8759 -0.4470
vn -0.3816 0.7624 -0.5226
vn 0.0548 -0.5572 -0.8286
vn -0.6636 0.6694 -0.3339
vn -0.8328 0.5482 -0.0768
vn -0.0407 0.9624 -0.2686
vn -0.1688 0.7806 -0.6018
vn 0.0058 -0.9105 -0.4135
vn -0.0772 -0.9620 0.2619
vn 0.1844 -0.9651 -0.1859
vn 0.3429 -0.9393 -0.0093
vn 0.3310 -0.9436 0.0084
vn -0.2789 0.9030 -0.3269
vn 0.1084 0.9393 -0.3256
vn 0.0768 0.8910 -0.4476
vn 0.1655 -0.8745 -0.4560
vn 0.0801 -0.9191 -0.3857
vn -0.6537 -0.7567 -0.0029
vn -0.7295 -0.0672 -0.6807
vn -0.0131 -0.0845 -0.9963
vn 0.0277 -0.2686 -0.9629
vn -0.2123 -0.4184 -0.8831
vn -0.5775 0.1760 -0.7972
vn -0.5424 0.4538 -0.7070
vn 0.1188 0.1966 -0.9733
vn 0.0607 0.3754 -0.9249
vn 0.0342 0.0322 -0.9989
vn -0.0495 0.3860 -0.9212
vn -0.7778 -0.2319 -0.5842
vn -0.9327 0.3606 0.0079
vn -0.8766 0.4773 -0.0622
vn -0.8830 -0.2954 -0.3647
vn -0.9613 -0.2676 0.0656
vn -0.3671 -0.6627 0.6527
vn -0.0067 0.0550 0.9985
vn 0.4422 -0.8941 -0.0706
vn -0.3371 -0.9197 -0.2014
vn 0.0877 -0.9841 -0.1547
vn -0.3055 -0.8142 -0.4937
vn -0.8900 0.4439 0.1044
vn -0.8185 0.5677 0.0888
vn -0.1170 -0.7049 -0.6995
vn -0.2319 -0.8791 -0.4163
vn -0.7015 0.7126 0.0086
vn -0.9955 -0.0949 0.0029
vn -0.4978 -0.4122 0.7631
vn -0.3705 0.8647 0.3391
vn 0.1957 0.9685 0.1539
vn -0.1142 0.9192 0.3768
vn 0.2699 -0.6229 0.7342
vn 0.5653 -0.6815 0.4648
vn -0.4288 0.7002 0.5708
vn -0.1187 0.6302 0.7673
vn -0.4772 0.8580 0.1900
vn -0.6004 0.7550 0.2635
vn -0.2074 -0.8546 0.4760
vn 0.2006 -0.6869 0.6985
vn -0.2507 0.9217 0.2960
vn -0.3708 0.8503 0.3735
vn 0.0884 0.5842 0.8068
vn 0.1306 0.9320 0.3382
vn -0.1832 0.9262 0.3296
vn 0.0881 0.8325 0.5470
vn -0.6183 0.3755 0.6905
vn -0.6085 -0.1834 0.7721
vn 0.0925 0.2954 0.9509
vn 0.0795 0.0576 0.9952
vn -0.1106 -0.1279 0.9856
vn -0.7032 -0.1440 0.6963
vn -0.0704 -0.0794 0.9944
vn 0.0865 -0.2902 -0.9530
vn 0.1415 -0.5033 -0.8524
vn 0.1198 -0.4471 -0.8864
vn -0.0062 -0.1564 -0.9877
vn -0.0574 0.2099 -0.9760
vn -0.1964 0.2574 -0.9461
vn 0.9857 0.1683 0.0026
vn -0.0938 -0.9956 0.0014
vn 0.0306 -0.9933 -0.1117
vn -0.0788 0.8072 -0.5849
vn -0.2362 0.8830 -0.4055
vn 0.0123 0.7283 -0.6852
vn 0.1964 -0.9115 -0.3614
vn 0.5715 -0.6188 -0.5389
vn 0.7216 -0.5362 -0.4380
vn -0.2902 0.9442 -0.1557
vn 0.1455 -0.9677 -0.2060
vn -0.6407 0.7013 -0.3124
vn -0.8865 0.1503 -0.4377
vn -0.1350 -0.7964 -0.5895
vn -0.2698 0.9008 -0.3402
vn -0.3180 0.7091 -0.6293
vn 0.1422 -0.8228 -0.5503
vn -0.8495 0.1256 0.5124
vn 0.2143 -0.1184 -0.9696
vn 0.4168 -0.1166 -0.9015
vn 0.1405 -0.0921 -0.9858
vn 0.0104 -0.0461 -0.9989
vn -0.3301 0.2081 -0.9207
vn -0.1357 0.2821 -0.9497
vn -0.1891 0.3104 -0.9316
vn -0.0368 0.1044 -0.9939
vn 0.0059 0.0475 -0.9989
vn -0.1481 0.5676 -0.8099
vn -0.0124 0.3842 -0.9232
vn 0.1576 0.0485 -0.9863
vn 0.0765 0.4638 -0.8826
vn -0.8558 -0.0229 -0.5168
vn -0.4103 -0.4053 -0.8169
vn -0.4655 -0.2711 -0.8425
vn -0.9152 -0.2479 0.3177
vn -0.9934 0.1129 0.0213
vn -0.0024 -0.1091 -0.9940
vn 0.6683 0.1263 -0.7331
vn -0.1802 -0.1122 -0.9772
vn 0.1427 -0.0552 0.9882
vn -0.2393 0.0069 0.9709
vn -0.2146 0.3632 0.9066
vn -0.0757 -0.0473 0.9960
vn 0.0145 0.2550 0.9668
vn -0.0743 -0.0159 0.9971
vn -0.1144 0.2708 0.9558
vn -0.4717 0.2258 0.8523
vn 0.2277 -0.7326 -0.6415
vn -0.3790 -0.8429 -0.3820
vn 0.3466 -0.9267 0.1455
vn -0.0000 0.8424 0.5388
vn -0.0668 0.7922 0.6066
vn 0.4673 -0.7723 0.4303
vn 0.4022 -0.8959 0.1888
vn -0.0459 0.9939 0.1000
vn 0.2166 0.9659 0.1416
vn -0.4320 0.8818 0.1893
vn -0.0424 -0.9482 0.3149
vn 0.0538 -0.9838 0.1708
vn 0.0600 -0.8517 0.5206
vn -0.3859 0.5034 0.7731
vn -0.9879 -0.1014 0.1172
vn -0.7081 0.7013 0.0820
vn -0.9507 0.1519 0.2704
vn -0.8980 0.3971 0.1893
vn -0.1184 0.9509 0.2860
vn -0.0814 0.9433 0.3218
vn 0.2739 -0.8849 0.3767
vn -0.2858 0.6005 0.7468
vn -0.2671 0.5657 0.7802
vn 0.0971 0.8405 0.5330
vn 0.0937 -0.9877 0.1254
vn 0.0969 -0.4756 0.8743
vn 0.1376 -0.6773 0.7227
vn 0.1071 -0.8389 0.5337
vn -0.1219 0.6660 0.7359
vn -0.1087 0.6131 0.7825
vn -0.1116 0.4573 0.8823
vn -0.8705 -0.4790 -0.1135
vn -0.6947 -0.7191 0.0134
vn -0.9328 0.1199 0.3398
vn 0.1120 -0.4090 0.9056
vn -0.0058 -0.5006 0.8657
vn 0.0172 -0.1010 0.9947
vn -0.2194 0.1310 0.9668
vn -0.0365 0.1817 0.9827
vn 0.0248 0.2485 0.9683
vn 0.0341 -0.2459 0.9687
vn -0.1955 -0.1243 0.9728
vn -0.0417 0.9989 -0.0215
vt 0.145285 0.354964
vt 0.173544 0.354964
vt 0.173544 0.383223
s 0
usemtl Elephant
f 96/1/1 115/2/1 212/3/1
f 248/1/2 98/2/2 27/3/2
f 98/1/3 47/2/3 27/3/3
f 97/1/4 3/2/4 4/3/4
f 97/1/5 7/2/5 3/3/5
f 193/1/6 3/2/6 5/3/6
f 5/1/7 7/2/7 6/3/7
f 249/1/8 127/2/8 6/3/8
f 8/1/9 105/2/9 121/3/9
f 168/1/10 214/2/10 194/3/10
f 213/1/11 60/2/11 101/3/11
f 11/1/12 195/2/12 140/3/12
f 12/1/13 113/2/13 221/3/13
f 218/1/14 211/2/14 74/3/14
f 103/1/15 32/2/15 79/3/15
f 79/1/16 143/2/16 103/3/16
f 103/1/17 22/2/17 32/3/17
f 64/1/18 194/2/18 13/3/18
f 106/1/19 108/2/19 15/3/19
f 34/1/20 19/2/20 110/3/20
f 20/1/21 44/2/21 21/3/21
f 23/1/22 115/2/22 22/3/22
f 109/1/23 22/2/23 115/3/23
f 128/1/24 116/2/24 21/3/24
f 221/1/25 24/2/25 61/3/25
f 227/1/26 24/2/26 43/3/26
f 216/1/27 232/2/27 25/3/27
f 25/1/28 232/2/28 26/3/28
f 10/1/29 222/2/29 214/3/29
f 222/1/30 123/2/30 118/3/30
f 101/1/31 119/2/31 29/3/31
f 119/1/32 223/2/32 120/3/32
f 223/1/33 77/2/33 164/3/33
f 30/1/34 120/2/34 203/3/34
f 222/1/35 192/2/35 27/3/35
f 118/1/36 123/2/36 122/3/36
f 122/1/37 28/2/37 118/3/37
f 34/1/38 224/2/38 33/3/38
f 36/1/39 25/2/39 227/3/39
f 107/1/40 244/2/40 127/3/40
f 204/1/41 126/2/41 37/3/41
f 5/1/42 37/2/42 126/3/42
f 4/1/43 38/2/43 209/3/43
f 94/1/44 209/2/44 39/3/44
f 41/1/45 228/2/45 206/3/45
f 42/1/46 227/2/46 43/3/46
f 43/1/47 128/2/47 42/3/47
f 130/1/48 45/2/48 229/3/48
f 46/1/49 130/2/49 230/3/49
f 230/1/50 130/2/50 47/3/50
f 215/1/51 232/2/51 216/3/51
f 26/1/52 48/2/52 186/3/52
f 50/1/53 187/2/53 49/3/53
f 251/1/54 243/2/54 187/3/54
f 187/1/55 50/2/55 251/3/55
f 132/1/56 133/2/56 53/3/56
f 53/1/57 133/2/57 145/3/57
f 91/1/58 87/2/58 55/3/58
f 134/1/59 55/2/59 56/3/59
f 57/1/60 134/2/60 56/3/60
f 56/1/61 136/2/61 57/3/61
f 136/1/62 86/2/62 57/3/62
f 57/1/63 137/2/63 135/3/63
f 138/1/64 197/2/64 253/3/64
f 185/1/65 102/2/65 216/3/65
f 26/1/66 184/2/66 61/3/66
f 72/1/67 71/2/67 74/3/67
f 66/1/68 69/2/68 65/3/68
f 170/1/69 105/2/69 8/3/69
f 64/1/70 13/2/70 153/3/70
f 153/1/71 73/2/71 152/3/71
f 143/1/72 79/2/72 142/3/72
f 73/1/73 236/2/73 157/3/73
f 75/1/74 247/2/74 235/3/74
f 238/1/75 237/2/75 165/3/75
f 162/1/76 242/2/76 237/3/76
f 77/1/77 82/2/77 76/3/77
f 70/1/78 237/2/78 78/3/78
f 70/1/79 80/2/79 166/3/79
f 167/1/80 64/2/80 81/3/80
f 197/1/81 67/2/81 241/3/81
f 177/1/82 54/2/82 176/3/82
f 89/1/83 179/2/83 247/3/83
f 90/1/84 152/2/84 179/3/84
f 179/1/85 89/2/85 90/3/85
f 55/1/86 252/2/86 91/3/86
f 252/1/87 242/2/87 91/3/87
f 184/1/88 186/2/88 92/3/88
f 102/1/89 202/2/89 93/3/89
f 93/1/90 202/2/90 243/3/90
f 2/1/91 250/2/91 94/3/91
f 95/1/92 2/2/92 94/3/92
f 109/1/93 96/2/93 95/3/93
f 1/1/94 205/2/94 212/3/94
f 96/1/95 212/2/95 205/3/95
f 230/1/96 4/2/96 250/3/96
f 248/1/97 27/2/97 225/3/97
f 4/1/98 47/2/98 97/3/98
f 98/1/99 7/2/99 97/3/99
f 98/1/100 6/2/100 7/3/100
f 100/1/101 166/2/101 99/3/101
f 102/1/102 215/2/102 216/3/102
f 93/1/103 233/2/103 102/3/103
f 195/1/104 11/2/104 141/3/104
f 113/1/105 12/2/105 104/3/105
f 14/1/106 218/2/106 144/3/106
f 106/1/107 114/2/107 204/3/107
f 106/1/108 204/2/108 208/3/108
f 225/1/109 34/2/109 110/3/109
f 111/1/110 19/2/110 121/3/110
f 121/1/111 105/2/111 111/3/111
f 219/1/112 112/2/112 124/3/112
f 219/1/113 44/2/113 20/3/113
f 218/1/114 189/2/114 220/3/114
f 20/1/115 113/2/115 112/3/115
f 113/1/116 104/2/116 112/3/116
f 116/1/117 113/2/117 190/3/117
f 190/1/118 21/2/118 116/3/118
f 25/1/119 26/2/119 227/3/119
f 24/1/120 221/2/120 117/3/120
f 43/1/121 24/2/121 117/3/121
f 25/1/122 35/2/122 216/3/122
f 43/1/123 117/2/123 116/3/123
f 222/1/124 118/2/124 28/3/124
f 191/1/125 30/2/125 226/3/125
f 120/1/126 30/2/126 119/3/126
f 27/1/127 192/2/127 224/3/127
f 33/1/128 192/2/128 31/3/128
f 33/1/129 224/2/129 192/3/129
f 194/1/130 214/2/130 124/3/130
f 34/1/131 33/2/131 121/3/131
f 123/1/132 44/2/132 122/3/132
f 124/1/133 122/2/133 219/3/133
f 208/1/134 244/2/134 207/3/134
f 208/1/135 204/2/135 244/3/135
f 38/1/136 4/2/136 3/3/136
f 42/1/137 228/2/137 41/3/137
f 21/1/138 129/2/138 128/3/138
f 206/1/139 228/2/139 229/3/139
f 46/1/140 2/2/140 1/3/140
f 250/1/141 46/2/141 230/3/141
f 130/1/142 123/2/142 27/3/142
f 131/1/143 231/2/143 202/3/143
f 254/1/144 131/2/144 202/3/144
f 92/1/145 48/2/145 131/3/145
f 233/1/146 93/2/146 251/3/146
f 93/1/147 243/2/147 251/3/147
f 50/1/148 49/2/148 233/3/148
f 52/1/149 51/2/149 132/3/149
f 132/1/150 53/2/150 52/3/150
f 51/1/151 183/2/151 132/3/151
f 183/1/152 182/2/152 132/3/152
f 88/1/153 56/2/153 87/3/153
f 252/1/154 55/2/154 134/3/154
f 86/1/155 137/2/155 57/3/155
f 135/1/156 137/2/156 148/3/156
f 138/1/157 137/2/157 58/3/157
f 139/1/158 213/2/158 210/3/158
f 139/1/159 83/2/159 60/3/159
f 100/1/160 214/2/160 160/3/160
f 100/1/161 10/2/161 214/3/161
f 171/1/162 172/2/162 158/3/162
f 172/1/163 140/2/163 195/3/163
f 216/1/164 173/2/164 185/3/164
f 69/1/165 149/2/165 154/3/165
f 150/1/166 253/2/166 197/3/166
f 169/1/167 53/2/167 145/3/167
f 170/1/168 80/2/168 147/3/168
f 151/1/169 170/2/169 147/3/169
f 81/1/170 153/2/170 152/3/170
f 181/1/171 246/2/171 152/3/171
f 13/1/172 73/2/172 153/3/172
f 157/1/173 236/2/173 200/3/173
f 200/1/174 179/2/174 157/3/174
f 235/1/175 247/2/175 200/3/175
f 200/1/176 236/2/176 235/3/176
f 185/1/177 173/2/177 159/3/177
f 235/1/178 236/2/178 217/3/178
f 162/1/179 237/2/179 238/3/179
f 162/1/180 238/2/180 161/3/180
f 242/1/181 252/2/181 237/3/181
f 77/1/182 239/2/182 164/3/182
f 100/1/183 160/2/183 238/3/183
f 240/1/184 223/2/184 164/3/184
f 32/1/185 223/2/185 240/3/185
f 165/1/186 237/2/186 70/3/186
f 100/1/187 165/2/187 166/3/187
f 168/1/188 194/2/188 167/3/188
f 164/1/189 239/2/189 155/3/189
f 79/1/190 164/2/190 155/3/190
f 79/1/191 32/2/191 240/3/191
f 170/1/192 8/2/192 99/3/192
f 99/1/193 166/2/193 170/3/193
f 162/1/194 81/2/194 246/3/194
f 167/1/195 194/2/195 64/3/195
f 75/1/196 159/2/196 174/3/196
f 247/1/197 75/2/197 174/3/197
f 84/1/198 149/2/198 59/3/198
f 149/1/199 67/2/199 59/3/199
f 67/1/200 138/2/200 59/3/200
f 177/1/201 52/2/201 53/3/201
f 52/1/202 177/2/202 87/3/202
f 89/1/203 180/2/203 90/3/203
f 152/1/204 90/2/204 181/3/204
f 201/1/205 90/2/205 182/3/205
f 183/1/206 201/2/206 182/3/206
f 242/1/207 246/2/207 181/3/207
f 201/1/208 242/2/208 181/3/208
f 91/1/209 201/2/209 183/3/209
f 254/1/210 102/2/210 185/3/210
f 95/1/211 39/2/211 203/3/211
f 2/1/212 96/2/212 205/3/212
f 2/1/213 95/2/213 96/3/213
f 205/1/214 1/2/214 2/3/214
f 3/1/215 7/2/215 5/3/215
f 248/1/216 6/2/216 98/3/216
f 6/1/217 37/2/217 5/3/217
f 6/1/218 248/2/218 225/3/218
f 225/1/219 110/2/219 6/3/219
f 6/1/220 110/2/220 249/3/220
f 127/1/221 37/2/221 6/3/221
f 8/1/222 121/2/222 99/3/222
f 121/1/223 33/2/223 99/3/223
f 100/1/224 99/2/224 31/3/224
f 99/1/225 33/2/225 31/3/225
f 101/1/226 60/2/226 119/3/226
f 10/1/227 100/2/227 31/3/227
f 125/1/228 140/2/228 172/3/228
f 173/1/229 216/2/229 35/3/229
f 221/1/230 217/2/230 12/3/230
f 103/1/231 23/2/231 22/3/231
f 13/1/232 104/2/232 12/3/232
f 13/1/233 124/2/233 112/3/233
f 189/1/234 218/2/234 14/3/234
f 189/1/235 14/2/235 16/3/235
f 74/1/236 144/2/236 218/3/236
f 13/1/237 194/2/237 124/3/237
f 9/1/238 14/2/238 144/3/238
f 207/1/239 106/2/239 208/3/239
f 121/1/240 19/2/240 34/3/240
f 18/1/241 204/2/241 114/3/241
f 18/1/242 114/2/242 189/3/242
f 16/1/243 17/2/243 189/3/243
f 18/1/244 189/2/244 126/3/244
f 126/1/245 204/2/245 18/3/245
f 20/1/246 190/2/246 113/3/246
f 112/1/247 219/2/247 20/3/247
f 21/1/248 190/2/248 20/3/248
f 115/1/249 96/2/249 109/3/249
f 116/1/250 117/2/250 221/3/250
f 221/1/251 61/2/251 217/3/251
f 222/1/252 28/2/252 214/3/252
f 222/1/253 27/2/253 123/3/253
f 119/1/254 30/2/254 191/3/254
f 29/1/255 119/2/255 191/3/255
f 223/1/256 32/2/256 120/3/256
f 223/1/257 119/2/257 60/3/257
f 223/1/258 60/2/258 77/3/258
f 192/1/259 222/2/259 31/3/259
f 28/1/260 124/2/260 214/3/260
f 28/1/261 122/2/261 124/3/261
f 32/1/262 22/2/262 109/3/262
f 32/1/263 109/2/263 120/3/263
f 125/1/264 172/2/264 35/3/264
f 244/1/265 204/2/265 37/3/265
f 250/1/266 4/2/266 209/3/266
f 39/1/267 209/2/267 40/3/267
f 39/1/268 40/2/268 30/3/268
f 42/1/269 36/2/269 227/3/269
f 43/1/270 116/2/270 128/3/270
f 130/1/271 46/2/271 45/3/271
f 130/1/272 229/2/272 44/3/272
f 46/1/273 250/2/273 2/3/273
f 27/1/274 47/2/274 130/3/274
f 131/1/275 48/2/275 231/3/275
f 186/1/276 184/2/276 26/3/276
f 61/1/277 24/2/277 26/3/277
f 231/1/278 49/2/278 188/3/278
f 188/1/279 202/2/279 231/3/279
f 49/1/280 187/2/280 188/3/280
f 91/1/281 51/2/281 87/3/281
f 9/1/282 144/2/282 213/3/282
f 60/1/283 83/2/283 82/3/283
f 60/1/284 82/2/284 77/3/284
f 172/1/285 195/2/285 196/3/285
f 61/1/286 184/2/286 235/3/286
f 235/1/287 217/2/287 61/3/287
f 195/1/288 141/2/288 62/3/288
f 62/1/289 196/2/289 195/3/289
f 234/1/290 12/2/290 217/3/290
f 66/1/291 68/2/291 85/3/291
f 69/1/292 85/2/292 149/3/292
f 146/1/293 199/2/293 147/3/293
f 170/1/294 151/2/294 105/3/294
f 153/1/295 81/2/295 64/3/295
f 163/1/296 154/2/296 198/3/296
f 198/1/297 175/2/297 163/3/297
f 73/1/298 157/2/298 152/3/298
f 81/1/299 152/2/299 246/3/299
f 73/1/300 12/2/300 234/3/300
f 236/1/301 73/2/301 234/3/301
f 76/1/302 176/2/302 77/3/302
f 239/1/303 176/2/303 54/3/303
f 238/1/304 165/2/304 100/3/304
f 165/1/305 70/2/305 166/3/305
f 162/1/306 246/2/306 242/3/306
f 168/1/307 167/2/307 161/3/307
f 80/1/308 170/2/308 166/3/308
f 81/1/309 162/2/309 167/3/309
f 179/1/310 200/2/310 247/3/310
f 85/1/311 67/2/311 149/3/311
f 242/1/312 201/2/312 91/3/312
f 91/1/313 183/2/313 51/3/313
f 202/1/314 102/2/314 254/3/314
f 92/1/315 254/2/315 184/3/315
f 243/1/316 202/2/316 187/3/316
f 39/1/317 95/2/317 94/3/317
f 30/1/318 203/2/318 39/3/318
f 95/1/319 203/2/319 109/3/319
f 212/1/320 206/2/320 1/3/320
f 230/1/321 47/2/321 4/3/321
f 97/1/322 47/2/322 98/3/322
f 102/1/323 233/2/323 215/3/323
f 11/1/324 103/2/324 143/3/324
f 11/1/325 143/2/325 141/3/325
f 225/1/326 224/2/326 34/3/326
f 110/1/327 19/2/327 249/3/327
f 219/1/328 122/2/328 44/3/328
f 189/1/329 114/2/329 220/3/329
f 17/1/330 126/2/330 189/3/330
f 17/1/331 245/2/331 126/3/331
f 112/1/332 104/2/332 13/3/332
f 220/1/333 211/2/333 218/3/333
f 116/1/334 221/2/334 113/3/334
f 227/1/335 26/2/335 24/3/335
f 40/1/336 226/2/336 30/3/336
f 10/1/337 31/2/337 222/3/337
f 224/1/338 225/2/338 27/3/338
f 120/1/339 109/2/339 203/3/339
f 244/1/340 107/2/340 207/3/340
f 126/1/341 245/2/341 5/3/341
f 245/1/342 193/2/342 5/3/342
f 38/1/343 3/2/343 193/3/343
f 94/1/344 250/2/344 209/3/344
f 42/1/345 128/2/345 228/3/345
f 229/1/346 228/2/346 129/3/346
f 228/1/347 128/2/347 129/3/347
f 229/1/348 45/2/348 206/3/348
f 45/1/349 1/2/349 206/3/349
f 129/1/350 21/2/350 44/3/350
f 129/1/351 44/2/351 229/3/351
f 46/1/352 1/2/352 45/3/352
f 130/1/353 44/2/353 123/3/353
f 26/1/354 232/2/354 48/3/354
f 48/1/355 232/2/355 215/3/355
f 215/1/356 233/2/356 48/3/356
f 131/1/357 254/2/357 92/3/357
f 92/1/358 186/2/358 48/3/358
f 231/1/359 48/2/359 233/3/359
f 50/1/360 233/2/360 251/3/360
f 233/1/361 49/2/361 231/3/361
f 132/1/362 182/2/362 133/3/362
f 55/1/363 87/2/363 56/3/363
f 134/1/364 135/2/364 252/3/364
f 56/1/365 88/2/365 136/3/365
f 135/1/366 134/2/366 57/3/366
f 59/1/367 138/2/367 58/3/367
f 138/1/368 148/2/368 137/3/368
f 148/1/369 138/2/369 253/3/369
f 60/1/370 213/2/370 139/3/370
f 172/1/371 196/2/371 158/3/371
f 144/1/372 74/2/372 71/3/372
f 147/1/373 80/2/373 146/3/373
f 70/1/374 146/2/374 80/3/374
f 154/1/375 163/2/375 72/3/375
f 163/1/376 71/2/376 72/3/376
f 147/1/377 199/2/377 151/3/377
f 63/1/378 105/2/378 151/3/378
f 13/1/379 12/2/379 73/3/379
f 156/1/380 142/2/380 155/3/380
f 142/1/381 79/2/381 155/3/381
f 169/1/382 156/2/382 155/3/382
f 157/1/383 179/2/383 152/3/383
f 159/1/384 184/2/384 185/3/384
f 217/1/385 236/2/385 234/3/385
f 184/1/386 159/2/386 75/3/386
f 75/1/387 235/2/387 184/3/387
f 161/1/388 238/2/388 160/3/388
f 160/1/389 168/2/389 161/3/389
f 77/1/390 176/2/390 239/3/390
f 252/1/391 78/2/391 237/3/391
f 252/1/392 135/2/392 78/3/392
f 161/1/393 167/2/393 162/3/393
f 79/1/394 240/2/394 164/3/394
f 169/1/395 54/2/395 53/3/395
f 54/1/396 169/2/396 239/3/396
f 169/1/397 155/2/397 239/3/397
f 78/1/398 146/2/398 70/3/398
f 78/1/399 148/2/399 146/3/399
f 135/1/400 148/2/400 78/3/400
f 172/1/401 171/2/401 173/3/401
f 173/1/402 35/2/402 172/3/402
f 138/1/403 67/2/403 197/3/403
f 53/1/404 54/2/404 177/3/404
f 76/1/405 177/2/405 176/3/405
f 51/1/406 52/2/406 87/3/406
f 178/1/407 180/2/407 89/3/407
f 90/1/408 180/2/408 182/3/408
f 181/1/409 90/2/409 201/3/409
f 184/1/410 254/2/410 185/3/410
f 187/1/411 202/2/411 188/3/411
f 257/1/412 256/2/412 255/3/412
