# Blender 5.1.0
# www.blender.org
mtllib ear_R.mtl
o ear_R
v 9.537260 17.025578 -3.680796
v 8.230515 21.917255 -4.141054
v 9.110067 21.598583 -3.374671
v 8.598679 22.382919 -4.500957
v 8.760059 22.371693 -4.191271
v 6.879860 22.961540 -4.838399
v 7.821016 16.072123 -4.795781
v 7.591563 15.852131 -4.455910
v 2.034080 19.917395 -6.817939
v 2.787042 21.463673 -6.170473
v 10.145262 20.572765 -3.419662
v 8.838236 21.494980 -4.528542
v 8.217177 21.919580 -4.875513
v 7.039388 16.761721 -4.415881
v 5.349468 13.632884 -4.808006
v 4.784506 14.248651 -5.779642
v 7.644891 16.167355 -5.010708
v 2.877916 17.492897 -6.701174
v 3.780813 15.414219 -6.211981
v 5.714062 13.874625 -4.486508
v 8.017565 17.124073 -4.954445
v 7.402639 18.686832 -5.312662
v 8.156196 15.409887 -3.778807
v 9.163961 15.438666 -3.573077
v 8.535258 20.899063 -3.753280
v 9.228711 21.707493 -4.001678
v 2.554879 21.722605 -7.097557
v 7.278623 23.043972 -4.877997
v 7.430393 22.761831 -5.015552
v 3.726419 22.551487 -5.876046
v 5.329865 22.613880 -5.180530
v 6.854841 15.371652 -4.469424
v 7.342741 15.417159 -4.641859
v 2.134050 21.468424 -6.884741
v 2.393504 19.306993 -7.103789
v 3.439165 22.665268 -6.197221
v 4.197308 18.114944 -5.383431
v 3.621566 16.692760 -6.794692
v 9.710043 21.403618 -3.083928
v 2.992557 21.214796 -7.030270
v 9.975745 15.901194 -3.464324
v 6.049964 13.584599 -4.845438
v 5.295460 13.685482 -5.180118
v 3.247814 17.360605 -5.977945
v 4.528443 14.379042 -5.190100
v 5.053251 17.789110 -6.220835
v 6.524676 14.009230 -4.924350
v 4.008626 14.952197 -5.598259
v 10.038494 21.153790 -3.230937
v 2.747725 22.317976 -6.774110
v 6.528844 13.916065 -4.754275
v 7.664535 16.608038 -4.144781
v 9.964041 19.421268 -3.590211
v 5.405307 23.034996 -5.474260
v 2.060902 20.887646 -7.081059
v 4.196269 15.122646 -6.319962
v 6.272356 13.745998 -4.611026
v 4.442687 14.309916 -5.694568
v 4.777686 14.466748 -4.888307
v 2.284310 19.939892 -6.489697
v 2.652607 22.117455 -6.463845
v 7.821016 16.072123 -4.795781
v 7.591563 15.852131 -4.455910
v 9.303204 14.465649 -2.533738
v 4.784506 14.248651 -5.779642
v 7.644891 16.167355 -5.010708
v 8.156196 15.409887 -3.778807
v 9.163961 15.438666 -3.573077
v 2.554879 21.722605 -7.097557
v 7.812941 15.800961 -4.544367
v 7.342741 15.417159 -4.641859
v 2.393504 19.306993 -7.103789
v 8.367797 14.955078 -3.251373
v 5.295460 13.685482 -5.180118
v 2.060902 20.887646 -7.081059
v 4.196269 15.122646 -6.319962
v 4.442687 14.309916 -5.694568
vn 0.3803 -0.0619 -0.9228
vn -0.8065 -0.1568 0.5701
vn 0.6221 -0.1978 -0.7576
vn 0.7395 0.2193 -0.6365
vn 0.4635 0.2940 -0.8359
vn 0.4867 0.8446 -0.2230
vn 0.4785 0.5792 -0.6600
vn -0.0584 0.6475 0.7598
vn -0.2076 0.3432 0.9160
vn -0.2655 0.2739 0.9244
vn -0.3129 0.0217 0.9495
vn 0.3269 -0.5234 0.7869
vn 0.6331 -0.3932 0.6668
vn -0.9848 0.0703 0.1589
vn -0.7339 0.1014 0.6716
vn -0.7292 0.1497 0.6677
vn -0.7954 0.0772 0.6011
vn -0.5760 0.3260 -0.7497
vn -0.7593 -0.1507 -0.6330
vn -0.6112 0.7369 0.2889
vn -0.3992 0.0980 0.9116
vn -0.5171 -0.0234 0.8556
vn -0.5093 -0.0122 0.8605
vn -0.9203 -0.3881 0.0494
vn -0.8735 -0.2850 0.3946
vn 0.7590 0.3231 -0.5653
vn 0.7241 0.2566 -0.6402
vn 0.6010 -0.0350 -0.7985
vn 0.5647 -0.8247 0.0321
vn -0.7095 -0.6718 0.2127
vn -0.7944 -0.5688 0.2130
vn 0.4085 -0.2472 -0.8787
vn -0.4887 -0.4115 -0.7693
vn -0.8312 -0.5463 -0.1028
vn 0.0430 -0.0442 0.9981
vn -0.2761 0.1034 0.9556
vn -0.4410 -0.3049 0.8441
vn -0.6318 0.1034 0.7682
vn 0.3700 0.0031 -0.9290
vn 0.1439 -0.0071 -0.9896
vn -0.1414 0.8912 0.4310
vn 0.2547 0.5264 -0.8112
vn 0.3141 0.2803 -0.9071
vn 0.4727 0.2975 -0.8295
vn -0.3505 0.7390 0.5753
vn -0.3436 0.5779 0.7403
vn 0.0074 -0.0395 0.9992
vn 0.3431 -0.2028 0.9172
vn 0.7639 -0.4489 0.4635
vn 0.8180 -0.4958 -0.2917
vn -0.6143 0.5209 -0.5926
vn -0.5625 0.4800 0.6732
vn -0.5457 0.0268 0.8375
vn 0.6510 0.0100 -0.7590
vn 0.3776 0.0300 -0.9255
vn 0.3615 -0.0028 -0.9324
vn 0.1822 -0.1499 0.9718
vn -0.0213 -0.7873 0.6162
vn -0.7284 -0.1924 0.6575
vn 0.3750 -0.0862 -0.9230
vn -0.4338 -0.3041 -0.8481
vn -0.5231 -0.2812 0.8046
vn 0.6368 -0.0845 -0.7664
vn -0.4166 0.5643 0.7128
vn 0.8220 0.5046 -0.2640
vn 0.7988 0.4494 -0.4000
vn -0.2976 0.5815 0.7572
vn -0.8121 0.5710 0.1201
vn 0.0493 0.8284 -0.5579
vn -0.5406 0.2494 0.8035
vn 0.4402 -0.1084 -0.8913
vn 0.3927 -0.2777 -0.8767
vn -0.8850 -0.2144 0.4134
vn 0.1961 -0.0238 -0.9803
vn -0.8592 -0.3183 -0.4006
vn 0.3755 -0.0319 -0.9263
vn -0.3984 -0.0028 0.9172
vn 0.5712 -0.7139 -0.4050
vn -0.0750 -0.9888 -0.1289
vn -0.5299 -0.4055 -0.7448
vn -0.5686 -0.6030 -0.5596
vn -0.3557 0.0699 0.9320
vn -0.6300 0.1045 0.7695
vn -0.1175 0.6955 0.7088
vn 0.5922 0.8046 -0.0442
vn 0.5702 0.1787 -0.8018
vn 0.2547 0.5310 -0.8082
vn 0.3545 0.1785 -0.9179
vn -0.3285 0.0401 0.9436
vn 0.6379 -0.3584 -0.6816
vn -0.3838 0.0550 0.9218
vn -0.7779 -0.1706 0.6047
vn 0.4856 -0.0041 -0.8742
vn 0.4899 -0.0070 -0.8717
vn 0.1943 -0.1119 -0.9745
vn -0.0507 -0.7995 0.5986
vn 0.2641 -0.5804 -0.7703
vn -0.5781 -0.8153 -0.0313
vn -0.7122 -0.1159 0.6923
vn -0.6534 -0.3853 0.6516
vn 0.3779 -0.0930 -0.9212
vn 0.3224 -0.5087 -0.7983
vn 0.2939 -0.6778 -0.6739
vn 0.0350 -0.8039 -0.5938
vn -0.2748 -0.8065 -0.5234
vn -0.2917 -0.6373 -0.7133
vn 0.2240 -0.4886 0.8432
vn -0.9420 -0.3195 0.1024
vn -0.3294 -0.8925 -0.3082
vn 0.5811 -0.5626 -0.5881
vn -0.0425 0.0054 -0.9991
vn -0.2539 -0.9441 -0.2103
vt 0.145285 0.354964
vt 0.173544 0.354964
vt 0.173544 0.383223
s 0
usemtl Elephant
f 46/1/1 22/2/1 21/3/1
f 52/1/2 8/2/2 23/3/2
f 1/1/3 24/2/3 21/3/3
f 26/1/4 12/2/4 4/3/4
f 4/1/5 13/2/5 29/3/5
f 4/1/6 28/2/6 5/3/6
f 29/1/7 28/2/7 4/3/7
f 28/1/8 6/2/8 5/3/8
f 2/1/9 5/2/9 6/3/9
f 6/1/10 31/2/10 2/3/10
f 2/1/11 37/2/11 14/3/11
f 8/1/12 32/2/12 33/3/12
f 51/1/13 33/2/13 57/3/13
f 34/1/14 55/2/14 9/3/14
f 60/1/15 10/2/15 34/3/15
f 10/1/16 61/2/16 34/3/16
f 9/1/17 60/2/17 34/3/17
f 34/1/18 27/2/18 55/3/18
f 35/1/19 9/2/19 55/3/19
f 36/1/20 50/2/20 61/3/20
f 31/1/21 30/2/21 10/3/21
f 37/1/22 60/2/22 44/3/22
f 37/1/23 10/2/23 60/3/23
f 18/1/24 19/2/24 48/3/24
f 18/1/25 44/2/25 9/3/25
f 26/1/26 49/2/26 11/3/26
f 12/1/27 26/2/27 11/3/27
f 12/1/28 53/2/28 21/3/28
f 57/1/29 42/2/29 51/3/29
f 45/1/30 58/2/30 15/3/30
f 58/1/31 45/2/31 48/3/31
f 17/1/32 47/2/32 56/3/32
f 19/1/33 38/2/33 56/3/33
f 19/1/34 58/2/34 48/3/34
f 20/1/35 32/2/35 14/3/35
f 14/1/36 37/2/36 20/3/36
f 14/1/37 8/2/37 52/3/37
f 25/1/38 3/2/38 2/3/38
f 40/1/39 46/2/39 38/3/39
f 40/1/40 35/2/40 27/3/40
f 54/1/41 6/2/41 28/3/41
f 54/1/42 29/2/42 50/3/42
f 40/1/43 50/2/43 29/3/43
f 27/1/44 50/2/44 40/3/44
f 30/1/45 54/2/45 36/3/45
f 31/1/46 54/2/46 30/3/46
f 14/1/47 32/2/47 8/3/47
f 57/1/48 33/2/48 32/3/48
f 7/1/49 33/2/49 51/3/49
f 51/1/50 47/2/50 7/3/50
f 34/1/51 50/2/51 27/3/51
f 30/1/52 36/2/52 61/3/52
f 59/1/53 37/2/53 44/3/53
f 53/1/54 12/2/54 11/3/54
f 22/1/55 40/2/55 13/3/55
f 46/1/56 40/2/56 22/3/56
f 32/1/57 20/2/57 57/3/57
f 42/1/58 20/2/58 15/3/58
f 45/1/59 59/2/59 48/3/59
f 56/1/60 46/2/60 21/3/60
f 18/1/61 35/2/61 38/3/61
f 59/1/62 15/2/62 20/3/62
f 21/1/63 53/2/63 1/3/63
f 2/1/64 3/2/64 5/3/64
f 5/1/65 39/2/65 26/3/65
f 5/1/66 26/2/66 4/3/66
f 31/1/67 6/2/67 54/3/67
f 61/1/68 50/2/68 34/3/68
f 36/1/69 54/2/69 50/3/69
f 10/1/70 30/2/70 61/3/70
f 38/1/71 46/2/71 56/3/71
f 47/1/72 16/2/72 56/3/72
f 18/1/73 48/2/73 44/3/73
f 35/1/74 40/2/74 38/3/74
f 18/1/75 9/2/75 35/3/75
f 1/1/76 53/2/76 41/3/76
f 52/1/77 25/2/77 14/3/77
f 51/1/78 42/2/78 47/3/78
f 15/1/79 43/2/79 42/3/79
f 19/1/80 18/2/80 38/3/80
f 56/1/81 58/2/81 19/3/81
f 20/1/82 37/2/82 59/3/82
f 14/1/83 25/2/83 2/3/83
f 17/1/3 21/2/3 24/3/3
f 39/1/84 5/2/84 3/3/84
f 26/1/85 39/2/85 49/3/85
f 4/1/86 12/2/86 13/3/86
f 54/1/87 28/2/87 29/3/87
f 29/1/88 13/2/88 40/3/88
f 37/1/89 2/2/89 31/3/89
f 47/1/90 17/2/90 7/3/90
f 37/1/91 31/2/91 10/3/91
f 9/1/92 44/2/92 60/3/92
f 12/1/93 22/2/93 13/3/93
f 12/1/94 21/2/94 22/3/94
f 24/1/95 1/2/95 41/3/95
f 42/1/96 57/2/96 20/3/96
f 43/1/97 16/2/97 42/3/97
f 43/1/98 15/2/98 58/3/98
f 59/1/99 44/2/99 48/3/99
f 45/1/100 15/2/100 59/3/100
f 21/1/101 17/2/101 56/3/101
f 42/1/102 16/2/102 47/3/102
f 62/1/103 68/2/103 64/3/103
f 64/1/104 73/2/104 62/3/104
f 77/1/105 65/2/105 74/3/105
f 77/1/106 76/2/106 65/3/106
f 63/1/107 71/2/107 70/3/107
f 62/1/108 73/2/108 67/3/108
f 67/1/109 63/2/109 70/3/109
f 70/1/110 71/2/110 62/3/110
f 69/1/111 72/2/111 75/3/111
f 66/1/112 68/2/112 62/3/112
