# Blender 5.1.0
# www.blender.org
mtllib ear_L.mtl
o ear_L
v 7.957001 15.924958 4.561907
v 7.912106 16.343435 3.703048
v 7.961426 15.870225 4.293592
v 8.457144 15.369885 3.798023
v 7.994213 15.503742 3.568327
v 6.374329 13.844152 4.633729
v 7.571092 15.722034 4.582666
v 5.571890 13.572136 4.841736
v 5.296367 13.806090 5.348252
v 4.955657 14.208397 4.792646
v 7.648805 16.356674 4.187973
v 6.155098 13.929614 4.483524
v 7.770981 17.239424 4.049454
v 5.761654 13.825069 4.495837
v 4.943635 13.884240 5.370957
v 7.039739 16.653084 4.412957
v 6.628400 15.527278 3.348564
v 7.738049 16.605072 3.448452
v 10.054018 21.049545 3.295696
v 7.834056 16.068478 4.804548
v 7.957001 15.924958 4.561907
v 7.961426 15.870225 4.293592
v 8.457144 15.369885 3.798023
v 8.319020 21.871391 4.093891
v 8.813712 22.334980 4.130900
v 6.600224 22.730862 4.825881
v 4.427361 22.862972 5.715047
v 4.022699 22.683722 5.750342
v 7.164936 23.065601 4.921630
v 2.264709 21.232792 7.126187
v 2.029007 21.130119 6.949709
v 2.489470 21.987494 6.914704
v 3.039507 22.521515 6.485559
v 4.039534 21.933739 5.609439
v 3.138961 17.308414 6.826338
v 2.100329 19.826235 6.679471
v 3.129728 17.294722 6.097759
v 9.674503 19.513321 3.769410
v 10.032643 20.506374 3.505306
v 7.603753 20.470837 5.261040
v 7.405472 15.301617 3.214234
v 6.355508 17.903023 3.515891
v 6.374329 13.844152 4.633729
v 4.388488 14.418753 5.851995
v 3.930548 15.704700 6.554187
v 4.640259 15.469122 4.045671
v 7.482373 19.513453 3.404432
v 5.136378 17.527693 6.170601
v 7.571092 15.722034 4.582666
v 8.240229 22.733418 4.496385
v 3.396743 22.629620 6.434083
v 2.076889 20.045841 7.053038
v 3.191406 18.340469 6.982204
v 2.315754 21.622606 6.588329
v 4.264627 22.120331 6.361616
v 7.806692 15.419579 3.400534
v 9.144223 21.580770 3.408452
v 7.840042 14.715454 2.694647
v 9.653550 21.409634 3.080736
v 2.305560 18.961868 6.900639
v 8.658179 20.392519 4.661163
v 7.733254 22.509285 5.008740
v 9.424787 16.588930 3.691905
v 8.969840 15.689472 3.725578
v 6.775199 14.332210 3.098339
v 5.571890 13.572136 4.841736
v 5.296367 13.806090 5.348252
v 4.449198 14.877836 6.184785
v 4.955657 14.208397 4.792646
v 3.886499 15.043116 6.028617
v 8.521813 20.915462 3.763324
v 7.573630 14.882681 2.934450
v 10.180221 19.047548 3.545548
v 4.077456 14.814577 5.544761
v 9.829009 21.288784 3.246381
v 7.733245 16.531227 5.051249
v 4.267233 17.884785 5.331976
v 2.478368 19.944326 6.347611
v 2.685540 21.416546 7.097386
v 8.772441 22.156929 4.448474
v 7.770981 17.239424 4.049454
v 5.761654 13.825069 4.495837
v 6.655200 14.186351 4.853309
v 4.943635 13.884240 5.370957
v 7.039739 16.653084 4.412957
vn -0.4137 -0.8437 0.3422
vn 0.1714 -0.0811 -0.9818
vn 0.1455 -0.8350 -0.5307
vn -0.0267 -0.0172 -0.9995
vn -0.4995 -0.4779 -0.7226
vn -0.8773 0.0465 -0.4776
vn -0.3838 -0.0911 -0.9189
vn 0.3925 -0.7350 0.5530
vn -0.5050 -0.5410 -0.6726
vn -0.7363 -0.5567 -0.3846
vn 0.1723 -0.7267 -0.6650
vn -0.9952 -0.0980 0.0046
vn 0.4518 -0.3107 -0.8362
vn -0.1842 -0.9266 0.3278
vn 0.1687 -0.0499 0.9844
vn 0.3837 -0.0365 0.9227
vn 0.4652 -0.8658 0.1843
vn 0.6263 -0.0716 0.7763
vn 0.6831 0.5955 0.4227
vn 0.8032 0.4690 0.3673
vn -0.1686 0.5234 -0.8352
vn 0.2924 0.4323 0.8530
vn -0.3077 0.0173 -0.9513
vn -0.3329 0.0458 -0.9419
vn -0.3356 0.1667 -0.9272
vn -0.3288 0.1380 -0.9342
vn -0.9983 -0.0474 -0.0348
vn -0.0247 -0.0576 0.9980
vn -0.6547 0.3784 0.6543
vn -0.5084 0.1480 -0.8483
vn -0.4630 0.0347 -0.8857
vn 0.6448 -0.0294 0.7638
vn 0.0486 -0.5904 0.8056
vn -0.7811 -0.6242 -0.0134
vn -0.7169 -0.6017 -0.3522
vn -0.7102 0.0907 -0.6981
vn -0.4860 0.0659 -0.8715
vn -0.4430 -0.3991 -0.8028
vn 0.4545 -0.5749 0.6804
vn 0.5371 0.4359 0.7222
vn 0.4484 0.5664 0.6915
vn -0.2834 0.5957 -0.7515
vn 0.8202 -0.5199 -0.2389
vn -0.1521 -0.1400 0.9784
vn 0.0788 -0.0244 0.9966
vn -0.1037 0.6858 0.7204
vn 0.2207 0.3652 0.9044
vn 0.2715 0.3343 0.9025
vn 0.4283 -0.3767 0.8214
vn -0.6420 -0.0860 -0.7619
vn 0.4923 0.0727 0.8674
vn 0.6403 0.0509 0.7664
vn 0.3527 0.0928 0.9311
vn 0.3691 0.1335 0.9198
vn 0.3610 -0.0555 0.9309
vn 0.1133 -0.1903 0.9752
vn 0.3315 -0.0283 0.9430
vn -0.7376 -0.6660 -0.1113
vn -0.6489 -0.6579 -0.3823
vn -0.6868 -0.1020 -0.7197
vn -0.5639 0.0155 -0.8257
vn -0.9263 -0.3045 -0.2217
vn 0.0339 -0.1509 0.9880
vn -0.3104 0.0808 -0.9472
vn 0.4575 0.0707 0.8864
vn 0.3950 -0.6890 0.6077
vn 0.6210 -0.0737 0.7804
vn -0.4308 0.5187 -0.7385
vn 0.6483 0.7482 -0.1408
vn -0.2664 0.6524 -0.7095
vn -0.2312 0.3201 -0.9187
vn -0.2782 0.4623 -0.8419
vn 0.0321 0.9363 0.3498
vn 0.2980 0.3834 0.8742
vn -0.6120 0.0482 0.7894
vn -0.9745 -0.2147 0.0651
vn -0.0593 0.2857 0.9565
vn -0.4044 0.8430 -0.3548
vn -0.5910 0.3955 -0.7031
vn -0.7679 0.5896 -0.2505
vn -0.5026 0.0748 -0.8613
vn 0.4514 -0.1123 0.8852
vn -0.9020 -0.2935 -0.3166
vn -0.9024 -0.2947 -0.3144
vn -0.7902 -0.4184 0.4477
vn 0.7487 0.2128 0.6279
vn 0.1093 -0.2028 0.9731
vn -0.4245 -0.5457 0.7225
vn 0.4926 -0.0301 0.8697
vn 0.6094 -0.2655 0.7471
vn 0.6101 -0.2809 0.7409
vn -0.6018 0.1440 -0.7856
vn 0.7100 0.6933 0.1234
vn 0.8317 -0.5341 -0.1517
vn -0.8261 0.0707 -0.5591
vn -0.6665 0.0422 -0.7443
vn -0.3043 0.9437 -0.1299
vn -0.8805 0.4705 -0.0574
vn 0.3676 -0.0477 0.9288
vn 0.1947 -0.6898 0.6973
vn -0.1871 -0.5964 0.7806
vn -0.5386 -0.0531 -0.8409
vn -0.3043 -0.1953 0.9323
vn 0.3958 0.0307 0.9178
vn 0.4973 0.0754 0.8643
vn 0.3492 -0.0032 0.9370
vn 0.4083 -0.7062 0.5784
vn 0.4046 -0.3421 0.8481
vn -0.1182 -0.7293 0.6739
vn -0.2903 -0.5362 0.7926
vn 0.5252 -0.3084 0.7931
vn 0.4334 -0.2718 0.8592
vn 0.3650 -0.0897 0.9267
vn -0.6710 -0.4333 0.6017
vn -0.2745 0.0960 -0.9568
vt 0.145285 0.354964
vt 0.173544 0.354964
vt 0.173544 0.383223
s 0
usemtl Elephant
f 1/1/1 5/2/1 4/3/1
f 16/1/2 7/2/2 12/3/2
f 8/1/3 14/2/3 6/3/3
f 16/1/4 12/2/4 14/3/4
f 16/1/5 11/2/5 3/3/5
f 13/1/6 2/2/6 11/3/6
f 11/1/7 16/2/7 13/3/7
f 6/1/8 9/2/8 8/3/8
f 14/1/9 8/2/9 10/3/9
f 2/1/10 3/2/10 11/3/10
f 12/1/11 6/2/11 14/3/11
f 5/1/12 3/2/12 2/3/12
f 12/1/13 7/2/13 6/3/13
f 9/1/14 15/2/14 8/3/14
f 17/1/15 47/2/15 42/3/15
f 48/1/16 76/2/16 40/3/16
f 49/1/17 22/2/17 21/3/17
f 63/1/18 61/2/18 76/3/18
f 80/1/19 25/2/19 50/3/19
f 25/1/20 80/2/20 75/3/20
f 26/1/21 50/2/21 25/3/21
f 26/1/21 29/2/21 50/3/21
f 62/1/22 29/2/22 51/3/22
f 77/1/23 24/2/23 85/3/23
f 34/1/24 24/2/24 77/3/24
f 34/1/25 28/2/25 26/3/25
f 26/1/26 24/2/26 34/3/26
f 36/1/27 52/2/27 31/3/27
f 52/1/28 53/2/28 30/3/28
f 31/1/29 30/2/29 32/3/29
f 34/1/30 54/2/30 28/3/30
f 77/1/31 78/2/31 34/3/31
f 61/1/32 38/2/32 39/3/32
f 44/1/33 67/2/33 68/3/33
f 74/1/34 44/2/34 70/3/34
f 74/1/35 69/2/35 84/3/35
f 24/1/36 71/2/36 81/3/36
f 81/1/37 85/2/37 24/3/37
f 85/1/38 22/2/38 49/3/38
f 20/1/39 23/2/39 64/3/39
f 50/1/40 62/2/40 80/3/40
f 29/1/41 62/2/41 50/3/41
f 25/1/42 59/2/42 57/3/42
f 83/1/43 43/2/43 20/3/43
f 53/1/44 52/2/44 35/3/44
f 79/1/45 30/2/45 53/3/45
f 51/1/46 33/2/46 32/3/46
f 32/1/47 79/2/47 51/3/47
f 51/1/48 79/2/48 55/3/48
f 41/1/49 65/2/49 72/3/49
f 36/1/50 78/2/50 37/3/50
f 80/1/51 62/2/51 61/3/51
f 39/1/52 80/2/52 61/3/52
f 40/1/53 62/2/53 55/3/53
f 55/1/54 79/2/54 40/3/54
f 63/1/55 73/2/55 38/3/55
f 41/1/56 17/2/56 65/3/56
f 17/1/57 42/2/57 46/3/57
f 74/1/58 84/2/58 44/3/58
f 84/1/59 69/2/59 66/3/59
f 69/1/60 74/2/60 37/3/60
f 37/1/61 77/2/61 69/3/61
f 74/1/62 70/2/62 37/3/62
f 53/1/63 35/2/63 45/3/63
f 82/1/64 69/2/64 77/3/64
f 38/1/65 73/2/65 39/3/65
f 49/1/66 21/2/66 20/3/66
f 63/1/67 38/2/67 61/3/67
f 25/1/68 57/2/68 24/3/68
f 75/1/69 59/2/69 25/3/69
f 26/1/70 28/2/70 29/3/70
f 25/1/71 24/2/71 26/3/71
f 27/1/72 29/2/72 28/3/72
f 27/1/73 51/2/73 29/3/73
f 51/1/74 55/2/74 62/3/74
f 31/1/75 52/2/75 30/3/75
f 36/1/76 60/2/76 52/3/76
f 32/1/77 30/2/77 79/3/77
f 28/1/78 33/2/78 27/3/78
f 33/1/79 28/2/79 54/3/79
f 54/1/80 32/2/80 33/3/80
f 34/1/81 78/2/81 54/3/81
f 68/1/82 48/2/82 45/3/82
f 37/1/83 70/2/83 60/3/83
f 37/1/84 60/2/84 36/3/84
f 60/1/85 70/2/85 35/3/85
f 19/1/86 80/2/86 39/3/86
f 41/1/87 18/2/87 17/3/87
f 70/1/88 44/2/88 45/3/88
f 76/1/89 61/2/89 40/3/89
f 76/1/90 20/2/90 63/3/90
f 64/1/91 63/2/91 20/3/91
f 71/1/92 24/2/92 57/3/92
f 75/1/93 80/2/93 19/3/93
f 20/1/94 43/2/94 49/3/94
f 31/1/95 54/2/95 36/3/95
f 36/1/96 54/2/96 78/3/96
f 51/1/97 27/2/97 33/3/97
f 54/1/98 31/2/98 32/3/98
f 45/1/99 48/2/99 53/3/99
f 72/1/100 58/2/100 56/3/100
f 72/1/101 56/2/101 41/3/101
f 37/1/102 78/2/102 77/3/102
f 60/1/103 35/2/103 52/3/103
f 79/1/104 53/2/104 48/3/104
f 61/1/105 62/2/105 40/3/105
f 48/1/106 40/2/106 79/3/106
f 43/1/107 83/2/107 67/3/107
f 83/1/108 68/2/108 67/3/108
f 67/1/109 44/2/109 84/3/109
f 68/1/110 45/2/110 44/3/110
f 83/1/111 20/2/111 76/3/111
f 76/1/112 68/2/112 83/3/112
f 68/1/113 76/2/113 48/3/113
f 45/1/114 35/2/114 70/3/114
f 85/1/115 82/2/115 77/3/115
