# Blender 5.1.0
# www.blender.org
mtllib head.mtl
o head
v 12.033897 5.827340 0.392070
v 12.595667 5.651468 0.562489
v 12.001623 5.458281 0.182379
v 12.235365 17.977123 -3.251202
v 14.594084 13.598392 -1.128021
v 14.689142 11.267710 -0.989590
v 15.020277 10.831434 -0.334110
v 14.659847 13.942246 -0.950897
v 14.517889 14.741127 0.286219
v 12.607605 13.363529 -1.943257
v 11.095041 21.079601 0.175232
v 11.866056 5.748671 -0.230991
v 9.110067 21.598583 -3.374671
v 14.883171 8.987974 -0.573068
v 13.816484 6.298926 -0.447523
v 13.286064 8.179882 0.003545
v 8.980179 21.434179 -2.377480
v 12.858053 5.571661 -0.441670
v 12.546291 5.360571 0.003734
v 11.417681 14.116871 -2.803802
v 9.827600 14.991077 -3.171306
v 9.303204 14.465649 -2.533738
v 12.029518 19.738745 -2.234186
v 13.978264 16.081417 -0.857086
v 12.999023 13.053582 -1.101307
v 13.489504 11.208460 -0.649584
v 13.277115 12.695919 -1.079002
v 10.145262 20.572765 -3.419662
v 12.794088 6.272604 -0.528765
v 12.028271 15.724048 -3.275309
v 7.769907 16.722588 -3.465575
v 16.138968 12.761073 -2.639544
v 17.148958 12.801367 -2.222891
v 13.651720 13.570426 -2.567981
v 15.562431 12.980576 -2.782013
v 13.973343 14.356970 -2.220682
v 15.630936 13.268701 -2.038353
v 15.657549 13.467188 -2.207514
v 17.497709 13.077133 -2.291328
v 10.054018 21.049545 3.295696
v 12.534805 17.435528 3.051573
v 13.778231 14.469665 2.126946
v 13.479578 14.433283 2.387816
v 14.162977 13.981530 1.356825
v 14.564787 13.974810 1.161755
v 14.889990 8.844581 0.331696
v 10.452763 21.338945 1.147183
v 8.457144 15.369885 3.798023
v 7.948662 14.402262 2.014504
v 12.893536 6.811178 -0.008239
v 9.671117 14.288671 2.152509
v 7.895048 13.998206 0.330822
v 12.430412 6.213980 -0.022909
v 11.609078 20.275501 2.676939
v 13.005678 17.450661 2.505046
v 14.072758 15.785792 1.304241
v 13.004038 13.025888 1.120306
v 13.134430 13.110914 1.617559
v 12.731483 13.480279 2.227359
v 13.315472 12.535707 1.031225
v 10.032643 20.506374 3.505306
v 12.033897 5.827340 0.392070
v 12.648436 6.200047 0.536380
v 13.678566 12.893224 1.239066
v 12.829422 13.650524 2.429394
v 12.892338 14.094629 2.567396
v 11.999338 17.376190 3.385854
v 10.026390 15.969355 3.464928
v 15.785965 12.632627 2.568854
v 15.259430 13.095254 2.099367
v 14.236820 12.871509 2.191872
v 13.879923 13.125798 1.838269
v 15.627098 12.999380 2.793231
v 14.915392 13.727954 2.272998
v 16.270361 13.516323 2.054763
v 18.631578 13.507645 1.715307
v 18.237379 13.249769 1.641654
v 11.702572 18.058699 -3.435627
v 13.728596 13.510321 -1.426899
v 14.156637 15.376144 -1.384042
v 12.543659 13.045279 0.006868
v 8.200582 22.045937 -0.230006
v 9.163961 15.438666 -3.573077
v 8.535258 20.899063 -3.753280
v 13.650000 9.641262 -0.606580
v 14.555828 7.462863 -0.315862
v 13.821375 6.206491 0.274089
v 10.097296 21.447231 -1.430985
v 9.710043 21.403618 -3.083928
v 8.367797 14.955078 -3.251373
v 11.350710 20.303087 -2.860763
v 10.044809 13.827427 -0.649532
v 14.897602 11.641469 -0.870216
v 13.403303 10.149767 -0.074632
v 13.563236 7.529392 -0.617432
v 12.827721 5.826003 -0.619212
v 13.894724 9.845797 -0.802718
v 14.428888 7.548321 -0.584062
v 12.779430 13.608742 -2.402446
v 9.975745 15.901194 -3.464324
v 8.347901 19.645737 -3.574816
v 14.667717 12.743833 -2.617386
v 13.878180 13.049733 -1.825087
v 15.177475 13.059881 -2.091876
v 17.786146 13.581332 -2.033582
v 14.575090 13.918867 -2.350544
v 16.405304 13.592703 -2.186728
v 18.834518 13.827524 -1.567415
v 18.427481 13.323496 -1.804822
v 13.884430 14.096165 1.569125
v 14.678658 11.204012 0.999650
v 14.923166 11.545367 0.843717
v 13.670153 6.291624 0.577628
v 12.639109 18.807373 0.381576
v 10.086359 13.757809 0.337442
v 11.878174 5.927850 0.166249
v 14.938929 9.872406 0.684103
v 8.399084 21.059856 2.874296
v 8.187373 20.648422 3.167234
v 9.144223 21.580770 3.408452
v 9.324491 21.495060 1.808229
v 7.840042 14.715454 2.694647
v 9.653550 21.409634 3.080736
v 11.417602 14.153034 2.836245
v 13.604303 9.433619 0.545158
v 12.595667 5.651468 0.562489
v 13.248232 6.870339 0.552610
v 13.611664 10.621158 0.727231
v 13.498491 13.251562 1.425726
v 11.830089 14.681713 3.191505
v 9.424787 16.588930 3.691905
v 8.969840 15.689472 3.725578
v 16.466410 12.857198 2.619819
v 14.690582 12.728703 2.553757
v 13.754364 13.629976 1.453429
v 15.111074 13.398881 2.095126
v 14.042675 14.106874 1.941636
v 18.568455 13.760216 1.730889
v 15.719847 12.738953 2.241564
v 17.597132 13.152061 2.273875
v 18.486509 13.642155 1.453506
v 18.529018 13.857933 1.547830
v 10.038494 21.153790 -3.230937
v 13.997261 14.155308 -1.596668
v 11.143999 20.905106 -2.084144
v 12.894936 12.759548 -0.076189
v 14.357685 13.585670 -1.872405
v 14.805008 13.175817 0.774399
v 9.106268 21.382904 2.823109
v 12.987000 5.664076 0.446070
v 10.180221 19.047548 3.545548
v 11.799086 19.411247 -3.150020
v 13.045774 14.588772 -2.551173
v 12.889393 13.957582 -2.597811
v 15.004955 12.675496 -2.396862
v 9.829009 21.288784 3.246381
v 12.121283 5.458514 -0.351969
v 13.588593 14.154812 -2.444541
v 8.829530 14.003950 0.270327
v 17.267811 12.854406 2.210292
v 9.964041 19.421268 -3.590211
v 13.577875 14.877133 -2.158857
v 14.164949 14.110241 -1.376926
v 13.531578 5.926823 -0.138966
v 8.231763 14.359837 -1.823880
v 12.423641 18.743351 -2.659710
v 11.971586 5.907757 -0.361715
v 13.516531 12.954557 -1.281808
v 11.344614 15.323137 -3.396979
v 11.665435 14.541670 -3.146208
v 13.312130 13.098770 -1.512823
v 14.333393 13.958452 -2.028118
v 15.478878 13.445760 -2.604075
v 18.807070 13.643091 -1.503396
v 18.658195 13.764041 -1.453211
v 12.865093 14.996129 2.712649
v 14.133453 15.049180 1.543038
v 13.654732 14.903166 1.971551
v 14.383522 7.360999 0.590435
v 13.201330 11.872094 0.017047
v 11.005701 20.933187 2.352938
v 9.689727 14.609526 2.792058
v 12.001623 5.458281 0.182379
v 13.763920 8.711164 0.683128
v 14.814842 12.973207 2.763143
v 13.630390 13.952635 2.499004
v 14.171764 13.615643 1.803695
v 18.859552 13.800255 1.523610
v 7.970835 16.831015 -3.691621
v 11.882399 19.048925 3.187734
v 9.832210 15.003271 3.207862
v 15.678698 13.465562 2.567325
v 8.651163 20.946159 -3.248527
v 17.988266 13.213625 -1.691197
v 8.637701 20.859982 3.360405
v 11.631902 20.548386 0.096755
vn -0.3828 -0.4308 0.8172
vn 0.1783 0.1166 -0.9770
vn 0.7572 0.2722 -0.5937
vn 0.3243 -0.0197 -0.9457
vn -0.4247 -0.8943 0.1407
vn 0.6786 0.2296 -0.6977
vn 0.8791 0.0743 -0.4707
vn 0.5346 -0.0284 -0.8447
vn 0.0717 -0.1217 -0.9900
vn 0.6130 -0.0912 -0.7848
vn -0.0117 -0.5733 -0.8193
vn -0.8802 0.4421 -0.1726
vn 0.2207 0.9573 0.1866
vn -0.4317 0.8776 -0.2086
vn -0.2687 0.1717 -0.9478
vn 0.7984 0.4746 -0.3706
vn -0.2832 -0.9059 -0.3149
vn -0.9561 -0.1987 -0.2155
vn -0.9445 -0.0940 -0.3147
vn 0.5270 -0.0680 -0.8471
vn -0.0678 -0.3300 -0.9415
vn -0.0773 -0.2941 -0.9526
vn 0.0631 -0.9964 -0.0566
vn 0.2409 0.7740 -0.5855
vn -0.1863 -0.4347 -0.8811
vn -0.0474 0.2015 -0.9783
vn 0.5799 -0.0272 0.8142
vn 0.4981 -0.6288 0.5971
vn 0.5986 0.7152 0.3609
vn 0.3623 0.9185 0.1588
vn 0.7389 -0.3165 -0.5949
vn 0.3780 0.1267 -0.9171
vn -0.0811 -0.5969 0.7982
vn -0.2219 0.2396 0.9452
vn 0.2145 0.3445 -0.9140
vn 0.2451 0.0145 -0.9694
vn -0.1304 0.6532 0.7459
vn 0.4632 -0.7156 -0.5229
vn 0.5137 0.1362 0.8471
vn 0.7317 0.2421 0.6371
vn 0.6777 -0.0751 0.7315
vn 0.5302 -0.4127 0.7406
vn 0.4800 -0.3351 0.8107
vn 0.3848 -0.2669 0.8836
vn 0.4303 -0.1435 0.8912
vn 0.4286 -0.1282 0.8943
vn 0.2660 -0.4664 0.8436
vn 0.9838 0.1795 -0.0030
vn 0.5057 -0.8585 0.0852
vn -0.9223 0.0700 0.3800
vn -0.3316 0.8041 0.4934
vn -0.8326 0.2345 0.5018
vn -0.0908 0.9918 0.0901
vn -0.0924 -0.9100 0.4043
vn 0.0210 -0.9723 0.2327
vn -0.7553 0.5781 0.3088
vn 0.8926 0.4338 0.1231
vn 0.8853 0.2078 0.4160
vn 0.9551 0.2465 0.1646
vn -0.0739 -0.7447 0.6633
vn -0.5817 -0.7811 0.2269
vn -0.2690 0.0716 0.9605
vn -0.5087 0.5997 0.6177
vn -0.1123 -0.0389 0.9929
vn 0.3855 -0.9210 0.0564
vn 0.0951 -0.0776 0.9924
vn 0.3158 -0.0406 0.9479
vn 0.0716 -0.8643 -0.4978
vn -0.0315 -0.9426 -0.3325
vn -0.3287 -0.5123 0.7934
vn 0.0305 -0.3005 0.9533
vn 0.3236 0.1450 -0.9350
vn 0.0206 -0.4610 -0.8872
vn 0.5138 -0.3610 -0.7782
vn 0.5820 -0.3968 -0.7098
vn 0.6229 -0.3707 -0.6889
vn 0.4009 0.7250 0.5601
vn 0.4992 0.6226 -0.6027
vn -0.0318 -0.0295 -0.9991
vn -0.1707 0.9802 -0.1000
vn -0.2466 0.4286 -0.8692
vn -0.0253 -0.8001 -0.5994
vn -0.6107 -0.2200 -0.7607
vn 0.9966 0.0738 0.0374
vn 0.9935 0.1081 -0.0356
vn -0.6452 -0.7146 -0.2705
vn 0.9479 0.3059 -0.0887
vn 0.7893 0.6092 -0.0769
vn -0.8966 0.0391 -0.4411
vn 0.8456 -0.5288 -0.0735
vn 0.3981 0.9098 -0.1173
vn 0.5587 -0.7394 -0.3757
vn -0.2186 -0.9704 -0.1025
vn -0.1901 -0.9808 -0.0430
vn -0.0859 -0.7330 -0.6747
vn -0.1994 -0.9460 -0.2556
vn -0.1639 -0.8434 -0.5117
vn -0.3670 -0.3394 -0.8661
vn -0.5808 -0.0817 -0.8099
vn 0.0402 -0.0854 -0.9955
vn -0.5060 -0.1912 -0.8411
vn -0.4609 -0.1897 -0.8669
vn -0.1297 -0.5753 -0.8076
vn 0.0066 -0.9523 -0.3051
vn -0.3999 -0.7379 -0.5437
vn 0.1493 0.2198 -0.9641
vn 0.0407 -0.3301 0.9431
vn 0.6757 0.7086 0.2031
vn 0.3192 0.5895 0.7420
vn -0.0152 0.9532 -0.3020
vn 0.4710 0.2259 0.8527
vn -0.1620 0.9473 0.2764
vn 0.2952 -0.9224 0.2492
vn 0.7531 0.0927 0.6514
vn 0.0321 -0.1216 0.9921
vn 0.5623 -0.0252 0.8265
vn 0.7200 -0.4863 0.4951
vn -0.9138 -0.2851 0.2894
vn 0.9648 0.2213 0.1420
vn -0.9587 -0.2472 0.1407
vn -0.5361 0.6550 0.5325
vn -0.8054 0.5754 -0.1423
vn 0.5465 0.7156 0.4349
vn 0.5365 0.6222 0.5701
vn 0.7070 0.7026 0.0806
vn 0.3901 0.9118 0.1279
vn -0.2394 -0.8656 0.4398
vn -0.2398 -0.8649 0.4409
vn -0.9057 -0.0588 0.4198
vn -0.9770 -0.1238 0.1738
vn -0.8460 -0.2055 0.4919
vn -0.0894 0.0559 0.9944
vn -0.0278 0.0230 0.9994
vn -0.1437 -0.1333 0.9806
vn -0.3329 -0.1979 0.9220
vn -0.0350 -0.4755 0.8790
vn 0.4484 -0.1290 0.8845
vn 0.0608 -0.0292 0.9977
vn 0.2625 -0.0968 0.9601
vn -0.0795 -0.9527 -0.2934
vn -0.0760 -0.9564 -0.2821
vn 0.0964 -0.4887 0.8671
vn -0.1277 0.1114 0.9855
vn 0.0719 0.4285 0.9007
vn 0.6430 0.0107 -0.7658
vn -0.1498 -0.3486 -0.9252
vn 0.2029 0.4087 0.8898
vn 0.2062 0.4475 0.8702
vn 0.1961 0.9275 0.3182
vn 0.3825 -0.5856 -0.7147
vn 0.0027 0.4001 -0.9165
vn 0.0438 0.8852 0.4631
vn 0.4930 -0.8290 0.2641
vn 0.2797 0.1792 -0.9432
vn 0.3455 0.1702 -0.9229
vn 0.1976 -0.0397 -0.9795
vn 0.4336 0.3370 -0.8357
vn 0.4716 -0.0331 -0.8812
vn 0.0831 -0.1138 -0.9900
vn 0.4256 -0.1275 -0.8959
vn 0.0389 -0.0157 -0.9991
vn 0.2750 -0.2366 -0.9319
vn -0.2964 -0.1193 -0.9476
vn 0.9972 -0.0717 -0.0189
vn 0.9980 -0.0566 0.0264
vn 0.8671 0.4975 -0.0249
vn 0.4291 0.9012 -0.0603
vn 0.3606 0.9326 -0.0105
vn 0.7580 -0.4256 -0.4943
vn -0.7776 0.2280 -0.5860
vn -0.8190 0.5737 -0.0121
vn 0.4895 -0.8692 -0.0693
vn -0.7038 0.5566 -0.4415
vn -0.8139 0.4744 -0.3354
vn 0.5754 0.7135 -0.3999
vn 0.0968 -0.9239 -0.3701
vn -0.2017 -0.6680 -0.7164
vn 0.7726 0.5107 -0.3770
vn 0.7502 0.6041 -0.2686
vn 0.8949 0.4195 -0.1524
vn -0.2552 -0.9529 -0.1639
vn -0.2755 -0.9382 -0.2094
vn -0.8860 -0.3391 -0.3162
vn -0.9079 -0.2307 -0.3500
vn -0.9367 -0.1051 -0.3339
vn 0.5475 -0.4007 -0.7346
vn 0.1330 -0.5159 -0.8463
vn 0.5890 0.0125 -0.8080
vn 0.2085 0.0206 -0.9778
vn 0.5683 -0.0434 -0.8217
vn 0.2780 -0.1882 -0.9420
vn -0.3099 -0.9478 -0.0758
vn -0.2230 -0.9740 0.0393
vn 0.4875 0.1548 0.8593
vn -0.1910 -0.1771 -0.9655
vn 0.0588 0.3658 -0.9288
vn 0.4370 -0.3167 0.8419
vn 0.2010 -0.0937 0.9751
vn 0.8155 0.2675 0.5133
vn 0.2135 0.3884 0.8964
vn 0.4054 0.2215 -0.8869
vn -0.1218 -0.2653 0.9564
vn 0.2007 0.3812 -0.9024
vn 0.3266 -0.5953 -0.7342
vn 0.3260 -0.8241 0.4632
vn -0.0066 -0.3901 0.9207
vn 0.3974 0.3167 0.8613
vn 0.5093 0.4251 0.7483
vn 0.1237 0.0399 0.9915
vn 0.5326 -0.0453 0.8451
vn -0.2593 -0.9564 0.1341
vn 0.9240 0.3822 0.0119
vn 0.8596 0.5073 0.0613
vn 0.4730 0.8776 0.0784
vn 0.5475 -0.6940 0.4674
vn 0.5608 -0.8129 0.1569
vn 0.3002 0.9539 -0.0013
vn -0.7939 -0.0599 0.6051
vn 0.8802 -0.4603 0.1156
vn -0.8697 0.2120 0.4458
vn 0.1525 0.9879 0.0269
vn -0.0746 -0.8905 0.4489
vn -0.0793 -0.9798 0.1837
vn -0.4034 0.8972 0.1796
vn -0.4887 0.8643 -0.1194
vn 0.8768 0.4594 0.1422
vn -0.2859 -0.9354 0.2082
vn 0.8604 0.2199 0.4597
vn 0.0502 -0.0454 0.9977
vn 0.0314 -0.5742 0.8181
vn 0.1393 0.2645 0.9543
vn 0.3614 -0.1377 0.9222
vn -0.0758 -0.5147 0.8540
vn 0.3029 -0.3015 0.9041
vn 0.3102 -0.2926 0.9045
vn 0.2423 -0.8432 0.4800
vn 0.7484 0.1531 -0.6453
vn -0.0659 -0.6295 0.7742
vn -0.3337 -0.6349 0.6968
vn 0.0228 0.2321 0.9724
vn 0.4996 0.6542 -0.5678
vn 0.3491 0.3372 -0.8743
vn -0.0756 0.4390 -0.8953
vn -0.2612 0.5426 -0.7983
vn 0.1123 -0.9382 -0.3275
vn 0.5482 -0.7132 -0.4368
vn -0.9633 0.1732 0.2050
vn 0.3840 0.3483 -0.8551
vn 0.7629 0.1056 -0.6379
vn 0.8147 0.2154 -0.5383
vn 0.7728 0.0811 -0.6295
vn 0.6527 -0.1916 -0.7330
vn 0.6696 -0.4370 -0.6006
vn 0.6425 -0.4136 -0.6451
vn 0.9921 0.0998 -0.0761
vn -0.7567 -0.6040 -0.2501
vn 0.9479 0.3060 -0.0887
vn 0.8885 0.4567 -0.0445
vn -0.7742 -0.6086 -0.1736
vn 0.6998 0.7132 -0.0399
vn -0.7992 0.5871 0.1288
vn -0.8933 0.0354 -0.4481
vn 0.8378 -0.2607 -0.4796
vn 0.7541 -0.6508 -0.0885
vn 0.0133 0.9995 -0.0295
vn 0.3748 -0.5002 -0.7806
vn -0.1712 -0.9034 -0.3930
vn -0.0950 -0.9536 -0.2856
vn -0.1887 -0.9801 -0.0612
vn 0.4910 0.8195 -0.2956
vn 0.5150 0.4876 -0.7050
vn -0.2849 -0.9569 -0.0555
vn -0.2018 -0.8581 -0.4721
vn 0.8995 0.3837 -0.2091
vn -0.3758 -0.9126 -0.1613
vn 0.9610 -0.0359 -0.2742
vn -0.3646 0.1584 -0.9176
vn -0.6404 0.0303 -0.7675
vn 0.3199 -0.1993 -0.9263
vn -0.0039 -0.6262 -0.7797
vn 0.0609 -0.0355 -0.9975
vn 0.0409 -0.0195 -0.9990
vn 0.3109 -0.3368 -0.8888
vn -0.1480 -0.1232 -0.9813
vn 0.1567 -0.6561 0.7382
vn 0.2044 0.5255 -0.8259
vn 0.3257 0.3519 -0.8775
vn 0.7950 0.5855 0.1588
vn 0.1199 0.7409 -0.6609
vn -0.0060 -0.5555 -0.8315
vn 0.1880 0.7181 -0.6701
vn -0.0567 0.1753 0.9829
vn -0.2363 0.8103 0.5363
vn -0.0038 -0.7874 0.6165
vn 0.2677 0.1318 0.9545
vn 0.5688 0.4163 0.7093
vn 0.6643 0.3415 0.6649
vn 0.6850 -0.1595 0.7109
vn 0.9618 0.2739 -0.0003
vn 0.6781 -0.0103 0.7349
vn 0.5680 -0.1261 0.8133
vn 0.4360 -0.0347 0.8993
vn 0.9146 0.0831 0.3958
vn 0.6041 -0.0700 0.7939
vn -0.9561 -0.1841 0.2281
vn 0.9967 0.0016 0.0812
vn 0.9009 0.4335 0.0199
vn 0.8509 -0.2062 0.4832
vn 0.9754 -0.2164 -0.0416
vn 0.9437 -0.2967 0.1461
vn 0.1069 0.9398 -0.3246
vn -0.0764 -0.8382 0.5399
vn -0.1989 -0.9519 0.2329
vn -0.6953 0.6131 0.3751
vn 0.4200 0.8850 0.2008
vn 0.7158 0.6942 0.0760
vn 0.1607 -0.8812 0.4446
vn -0.0074 -0.8867 0.4623
vn 0.0900 -0.7384 0.6684
vn 0.8071 0.3711 0.4592
vn -0.2450 -0.8925 0.3787
vn -0.1971 -0.6773 0.7089
vn -0.7445 -0.5977 0.2974
vn -0.8110 -0.5510 0.1966
vn -0.8321 -0.0790 0.5490
vn 0.0523 -0.1097 0.9926
vn -0.8771 -0.0809 0.4735
vn -0.3542 -0.3803 0.8544
vn 0.3405 -0.3227 0.8831
vn 0.4410 -0.0921 0.8928
vn -0.0325 -0.2509 0.9675
vn -0.0145 -0.5264 0.8501
vn -0.3841 -0.8800 0.2792
vn -0.0430 0.2114 0.9765
vn 0.4059 0.8712 -0.2760
vn 0.6858 0.6584 -0.3103
vn 0.8644 0.3330 -0.3768
vn 0.4583 0.0598 0.8868
vn 0.5692 0.0919 0.8171
vn -0.0952 -0.4727 -0.8761
vn -0.0023 -0.3732 -0.9278
vn 0.2328 0.2188 0.9476
vn 0.1857 0.8829 0.4313
vn 0.5151 -0.6811 0.5204
vn 0.3727 -0.5689 0.7331
vt 0.145285 0.354964
vt 0.173544 0.354964
vt 0.173544 0.383223
vt 0.052273 0.358839
vt 0.080533 0.358839
vt 0.080533 0.387099
s 0
usemtl Elephant
f 1/1/1 3/2/1 2/3/1
f 78/1/2 161/2/2 28/3/2
f 152/1/3 166/2/3 4/3/3
f 30/1/4 78/2/4 4/3/4
f 144/1/5 8/2/5 163/3/5
f 163/1/6 8/2/6 5/3/6
f 5/1/7 8/2/7 93/3/7
f 93/1/8 6/2/8 5/3/8
f 163/1/9 6/2/9 168/3/9
f 6/1/10 93/2/10 14/3/10
f 18/1/11 157/2/11 96/3/11
f 116/1/12 167/2/12 12/3/12
f 17/1/13 89/2/13 13/3/13
f 53/1/14 29/2/14 167/3/14
f 29/1/15 96/2/15 167/3/15
f 23/1/16 166/2/16 152/3/16
f 171/1/17 168/2/17 25/3/17
f 26/1/18 180/2/18 27/3/18
f 94/1/19 180/2/19 26/3/19
f 30/1/20 153/2/20 154/3/20
f 169/1/21 170/2/21 21/3/21
f 21/1/22 100/2/22 169/3/22
f 33/4/23 155/5/23 32/6/23
f 158/4/24 106/5/24 173/6/24
f 99/4/25 154/5/25 34/6/25
f 34/4/26 158/5/26 35/6/26
f 79/4/27 147/5/27 144/6/27
f 79/4/28 171/5/28 147/6/28
f 172/4/29 106/5/29 36/6/29
f 38/4/30 106/5/30 172/6/30
f 108/4/31 174/5/31 109/6/31
f 109/4/32 105/5/32 108/6/32
f 104/4/33 155/5/33 194/6/33
f 104/4/34 175/5/34 37/6/34
f 35/4/35 105/5/35 39/6/35
f 39/4/36 32/5/36 35/6/36
f 37/4/37 107/5/37 38/6/37
f 39/4/38 109/5/38 33/6/38
f 190/1/39 67/2/39 41/3/39
f 41/1/40 55/2/40 190/3/40
f 178/1/41 177/2/41 176/3/41
f 44/1/42 135/2/42 129/3/42
f 44/1/43 110/2/43 135/3/43
f 129/1/44 64/2/44 44/3/44
f 177/1/45 44/2/45 45/3/45
f 111/1/46 179/2/46 117/3/46
f 150/1/47 113/2/47 126/3/47
f 148/1/48 8/2/48 9/3/48
f 19/1/49 164/2/49 150/3/49
f 125/1/50 94/2/50 16/3/50
f 118/1/51 195/2/51 149/3/51
f 16/1/52 50/2/52 127/3/52
f 149/1/53 123/2/53 121/3/53
f 51/1/54 122/2/54 49/3/54
f 52/1/55 159/2/55 49/3/55
f 53/1/56 63/2/56 50/3/56
f 55/1/57 114/2/57 54/3/57
f 56/1/58 177/2/58 45/3/58
f 45/1/59 9/2/59 56/3/59
f 65/1/60 124/2/60 59/3/60
f 57/1/61 81/2/61 146/3/61
f 62/1/62 126/2/62 63/3/62
f 62/1/63 63/2/63 116/3/63
f 127/1/64 113/2/64 184/3/64
f 57/1/65 129/2/65 58/3/65
f 67/1/66 68/2/66 130/3/66
f 68/1/67 151/2/67 131/3/67
f 58/4/68 129/5/68 71/6/68
f 71/4/69 134/5/69 58/6/69
f 134/4/70 185/5/70 59/6/70
f 66/4/71 65/5/71 186/6/71
f 136/4/72 70/5/72 187/6/72
f 70/4/73 71/5/73 187/6/73
f 71/4/74 72/5/74 187/6/74
f 72/4/75 135/5/75 187/6/75
f 129/4/76 135/5/76 72/6/76
f 42/4/77 43/5/77 74/6/77
f 137/4/78 74/5/78 136/6/78
f 136/4/79 75/5/79 70/6/79
f 75/4/80 192/5/80 142/6/80
f 70/4/81 142/5/81 141/6/81
f 160/4/82 69/5/82 77/6/82
f 157/1/83 12/2/83 167/3/83
f 148/1/84 112/2/84 7/3/84
f 7/1/85 8/2/85 148/3/85
f 146/1/86 81/2/86 25/3/86
f 80/1/87 9/2/87 8/3/87
f 23/1/88 145/2/88 196/3/88
f 85/1/89 95/2/89 16/3/89
f 87/1/90 15/2/90 86/3/90
f 145/1/91 89/2/91 88/3/91
f 15/1/92 164/2/92 18/3/92
f 92/1/93 159/2/93 165/3/93
f 19/1/94 183/2/94 157/3/94
f 83/1/95 21/2/95 22/3/95
f 171/1/96 25/2/96 10/3/96
f 99/1/97 10/2/97 20/3/97
f 25/1/98 168/2/98 27/3/98
f 97/1/99 85/2/99 26/3/99
f 97/1/100 98/2/100 95/3/100
f 168/1/101 97/2/101 27/3/101
f 168/1/102 98/2/102 97/3/102
f 170/1/103 20/2/103 21/3/103
f 102/4/104 32/5/104 155/6/104
f 10/4/105 99/5/105 102/6/105
f 34/4/106 154/5/106 158/6/106
f 147/4/107 104/5/107 37/6/107
f 172/4/108 36/5/108 144/6/108
f 38/4/109 172/5/109 37/6/109
f 173/4/110 107/5/110 108/6/110
f 175/4/111 174/5/111 108/6/111
f 108/4/112 107/5/112 175/6/112
f 109/4/113 194/5/113 33/6/113
f 177/1/114 55/2/114 41/3/114
f 64/1/115 111/2/115 44/3/115
f 111/1/116 112/2/116 45/3/116
f 113/1/117 87/2/117 179/3/117
f 60/1/118 146/2/118 180/3/118
f 9/1/119 45/2/119 148/3/119
f 12/1/120 183/2/120 116/3/120
f 119/1/121 195/2/121 118/3/121
f 195/1/122 120/2/122 149/3/122
f 54/1/123 181/2/123 156/3/123
f 156/1/124 40/2/124 54/3/124
f 11/1/125 54/2/125 196/3/125
f 123/1/126 181/2/126 47/3/126
f 59/1/127 124/2/127 51/3/127
f 182/1/128 51/2/128 124/3/128
f 128/1/129 180/2/129 125/3/129
f 94/1/130 125/2/130 180/3/130
f 62/1/131 116/2/131 183/3/131
f 126/1/132 127/2/132 63/3/132
f 113/1/133 127/2/133 126/3/133
f 64/1/134 184/2/134 179/3/134
f 128/1/135 64/2/135 60/3/135
f 60/1/136 64/2/136 129/3/136
f 130/1/137 66/2/137 176/3/137
f 68/1/138 67/2/138 151/3/138
f 132/1/139 68/2/139 131/3/139
f 139/4/140 69/5/140 134/6/140
f 134/4/141 71/5/141 139/6/141
f 73/4/142 69/5/142 133/6/142
f 185/4/143 186/5/143 65/6/143
f 73/4/144 192/5/144 186/6/144
f 135/4/145 110/5/145 187/6/145
f 139/4/146 141/5/146 77/6/146
f 140/4/147 192/5/147 73/6/147
f 140/4/148 138/5/148 192/6/148
f 74/4/149 192/5/149 75/6/149
f 141/4/150 188/5/150 77/6/150
f 141/4/151 142/5/151 188/6/151
f 138/4/152 142/5/152 192/6/152
f 160/4/153 77/5/153 76/6/153
f 78/1/154 28/2/154 152/3/154
f 152/1/155 4/2/155 78/3/155
f 30/1/156 169/2/156 78/3/156
f 162/4/157 158/5/157 153/6/157
f 6/1/158 163/2/158 5/3/158
f 6/1/159 98/2/159 168/3/159
f 14/1/160 98/2/160 6/3/160
f 98/1/161 96/2/161 95/3/161
f 96/1/162 98/2/162 15/3/162
f 96/1/163 157/2/163 167/3/163
f 14/1/164 7/2/164 46/3/164
f 7/1/165 117/2/165 46/3/165
f 196/1/166 114/2/166 23/3/166
f 11/1/167 145/2/167 88/3/167
f 11/1/168 88/2/168 47/3/168
f 15/1/169 98/2/169 86/3/169
f 50/1/170 16/2/170 95/3/170
f 17/1/171 13/2/171 193/3/171
f 18/1/172 164/2/172 19/3/172
f 29/1/173 53/2/173 50/3/173
f 29/1/174 50/2/174 95/3/174
f 145/1/175 91/2/175 143/3/175
f 19/1/176 157/2/176 18/3/176
f 21/1/177 20/2/177 22/3/177
f 152/1/178 91/2/178 23/3/178
f 91/1/179 145/2/179 23/3/179
f 23/1/180 24/2/180 166/3/180
f 10/1/181 81/2/181 92/3/181
f 10/1/182 92/2/182 22/3/182
f 146/1/183 27/2/183 180/3/183
f 26/1/184 27/2/184 97/3/184
f 26/1/185 85/2/185 94/3/185
f 171/1/186 79/2/186 168/3/186
f 99/1/187 170/2/187 154/3/187
f 30/1/188 162/2/188 153/3/188
f 153/4/189 158/5/189 154/6/189
f 4/1/190 162/2/190 30/3/190
f 30/1/191 170/2/191 169/3/191
f 171/4/192 10/5/192 102/6/192
f 155/4/193 171/5/193 102/6/193
f 103/4/194 171/5/194 155/6/194
f 34/4/195 102/5/195 99/6/195
f 35/4/196 158/5/196 173/6/196
f 147/4/197 171/5/197 103/6/197
f 103/4/198 104/5/198 147/6/198
f 172/4/199 144/5/199 147/6/199
f 147/4/200 37/5/200 172/6/200
f 109/4/201 39/5/201 105/6/201
f 104/4/202 194/5/202 175/6/202
f 35/4/203 173/5/203 105/6/203
f 33/4/204 32/5/204 39/6/204
f 109/4/205 174/5/205 194/6/205
f 175/4/206 194/5/206 174/6/206
f 61/1/207 190/2/207 40/3/207
f 190/1/208 54/2/208 40/3/208
f 151/1/209 67/2/209 61/3/209
f 67/1/210 176/2/210 41/3/210
f 81/1/211 58/2/211 115/3/211
f 56/1/212 9/2/212 24/3/212
f 196/1/213 54/2/213 114/3/213
f 47/1/214 181/2/214 11/3/214
f 87/1/215 113/2/215 150/3/215
f 150/1/216 164/2/216 87/3/216
f 47/1/217 88/2/217 82/3/217
f 184/1/218 125/2/218 16/3/218
f 179/1/219 87/2/219 86/3/219
f 127/1/220 184/2/220 16/3/220
f 123/1/221 47/2/221 121/3/221
f 51/1/222 182/2/222 122/3/222
f 159/1/223 51/2/223 49/3/223
f 53/1/224 116/2/224 63/3/224
f 53/1/225 167/2/225 116/3/225
f 55/1/226 56/2/226 114/3/226
f 115/1/227 58/2/227 51/3/227
f 56/1/228 55/2/228 177/3/228
f 184/1/229 113/2/229 179/3/229
f 130/1/230 124/2/230 65/3/230
f 66/4/231 186/5/231 43/6/231
f 43/1/232 176/2/232 66/3/232
f 130/1/233 191/2/233 124/3/233
f 68/1/234 132/2/234 191/3/234
f 132/1/235 48/2/235 191/3/235
f 69/4/236 160/5/236 133/6/236
f 71/4/237 129/5/237 72/6/237
f 134/4/238 69/5/238 185/6/238
f 59/4/239 185/5/239 65/6/239
f 186/4/240 192/5/240 43/6/240
f 137/4/241 42/5/241 74/6/241
f 137/4/242 136/5/242 187/6/242
f 74/4/243 75/5/243 136/6/243
f 70/4/244 75/5/244 142/6/244
f 77/4/245 69/5/245 139/6/245
f 77/4/246 188/5/246 76/6/246
f 193/1/247 84/2/247 101/3/247
f 143/1/248 152/2/248 28/3/248
f 80/1/249 162/2/249 4/3/249
f 4/1/250 166/2/250 80/3/250
f 80/1/251 8/2/251 162/3/251
f 162/1/252 8/2/252 144/3/252
f 163/1/253 79/2/253 144/3/253
f 79/1/254 163/2/254 168/3/254
f 7/1/255 93/2/255 8/3/255
f 25/1/256 27/2/256 146/3/256
f 80/1/257 24/2/257 9/3/257
f 114/1/258 24/2/258 23/3/258
f 183/1/259 12/2/259 157/3/259
f 11/1/260 196/2/260 145/3/260
f 13/1/261 84/2/261 193/3/261
f 16/1/262 94/2/262 85/3/262
f 86/1/263 98/2/263 14/3/263
f 15/1/264 87/2/264 164/3/264
f 88/1/265 89/2/265 17/3/265
f 15/1/266 18/2/266 96/3/266
f 90/1/267 22/2/267 165/3/267
f 165/1/268 22/2/268 92/3/268
f 92/1/269 115/2/269 159/3/269
f 143/1/270 89/2/270 145/3/270
f 143/1/271 91/2/271 152/3/271
f 92/1/272 81/2/272 115/3/272
f 10/1/273 22/2/273 20/3/273
f 80/1/274 166/2/274 24/3/274
f 25/1/275 81/2/275 10/3/275
f 7/1/276 14/2/276 93/3/276
f 95/1/277 96/2/277 29/3/277
f 97/1/278 95/2/278 85/3/278
f 154/1/279 170/2/279 30/3/279
f 170/1/280 99/2/280 20/3/280
f 100/1/281 161/2/281 78/3/281
f 100/1/282 78/2/282 169/3/282
f 21/1/283 83/2/283 100/3/283
f 35/4/284 102/5/284 34/6/284
f 103/4/285 155/5/285 104/6/285
f 36/4/286 106/5/286 158/6/286
f 158/4/287 162/5/287 36/6/287
f 36/4/288 162/5/288 144/6/288
f 173/4/289 108/5/289 105/6/289
f 35/4/290 32/5/290 102/6/290
f 106/4/291 107/5/291 173/6/291
f 38/4/292 107/5/292 106/6/292
f 107/4/293 37/5/293 175/6/293
f 194/4/294 155/5/294 33/6/294
f 190/1/295 61/2/295 67/3/295
f 178/1/296 43/2/296 42/3/296
f 178/1/297 176/2/297 43/3/297
f 178/1/298 110/2/298 177/3/298
f 42/1/299 110/2/299 178/3/299
f 177/1/300 41/2/300 176/3/300
f 44/1/301 177/2/301 110/3/301
f 45/1/302 44/2/302 111/3/302
f 45/1/303 112/2/303 148/3/303
f 111/1/304 117/2/304 112/3/304
f 128/1/305 60/2/305 180/3/305
f 112/1/306 117/2/306 7/3/306
f 114/1/307 56/2/307 24/3/307
f 117/1/308 179/2/308 46/3/308
f 46/1/309 86/2/309 14/3/309
f 46/1/310 179/2/310 86/3/310
f 149/1/311 120/2/311 123/3/311
f 122/1/312 182/2/312 48/3/312
f 115/1/313 51/2/313 159/3/313
f 50/1/314 63/2/314 127/3/314
f 181/1/315 123/2/315 156/3/315
f 11/1/316 181/2/316 54/3/316
f 19/1/317 150/2/317 126/3/317
f 19/1/318 126/2/318 183/3/318
f 191/1/319 48/2/319 182/3/319
f 54/1/320 190/2/320 55/3/320
f 51/1/321 58/2/321 59/3/321
f 182/1/322 124/2/322 191/3/322
f 58/1/323 81/2/323 57/3/323
f 57/1/324 146/2/324 60/3/324
f 128/1/325 125/2/325 184/3/325
f 111/1/326 64/2/326 179/3/326
f 128/1/327 184/2/327 64/3/327
f 57/1/328 60/2/328 129/3/328
f 65/1/329 66/2/329 130/3/329
f 176/1/330 67/2/330 130/3/330
f 191/1/331 130/2/331 68/3/331
f 73/4/332 185/5/332 69/6/332
f 59/4/333 58/5/333 134/6/333
f 73/4/334 186/5/334 185/6/334
f 74/4/335 43/5/335 192/6/335
f 110/4/336 42/5/336 137/6/336
f 137/4/337 187/5/337 110/6/337
f 138/4/338 140/5/338 76/6/338
f 138/4/339 76/5/339 188/6/339
f 139/4/340 70/5/340 141/6/340
f 139/4/341 71/5/341 70/6/341
f 140/4/342 73/5/342 133/6/342
f 142/4/343 138/5/343 188/6/343
f 140/4/344 160/5/344 76/6/344
f 140/4/345 133/5/345 160/6/345
