# Blender 5.1.0
# www.blender.org
mtllib leg_FL.mtl
o leg_FL
v 6.628400 15.527278 3.348564
v 6.944643 13.777420 1.188582
v 2.496974 11.773599 2.552996
v 5.836741 8.725612 2.558129
v 5.248205 6.208280 1.324504
v 4.712163 10.672150 0.847061
v 4.526680 7.947249 0.990464
v 5.433388 8.694608 1.327101
v 2.534222 11.461363 1.805353
v 3.340493 7.072698 2.484590
v 3.317614 11.084062 1.163394
v 2.804797 11.499056 1.180345
v 3.681540 9.504380 1.225431
v 3.430282 5.269472 1.665247
v 3.353861 8.468822 1.696249
v 2.887321 2.846960 1.629310
v 3.326431 3.009454 1.191357
v 5.611797 6.264131 2.640463
v 3.832267 5.336962 1.202203
v 6.792818 2.973848 1.088772
v 6.872140 3.200096 1.851038
v 6.690784 3.352013 1.156961
v 3.408957 3.043802 3.297813
v 2.979676 3.243917 1.647025
v 5.039985 3.839490 3.396807
v 2.742319 14.952789 3.689238
v 3.991844 14.415147 3.946350
v 7.024199 3.143177 2.242096
v 3.411606 2.728507 3.124798
v 6.807356 3.242270 2.634726
v 4.201633 2.844202 1.000140
v 4.640259 15.469122 4.045671
v 3.654748 11.864011 0.681362
v 6.458716 13.491344 0.523732
v 6.466693 13.356700 0.975691
v 5.888903 12.849555 0.802990
v 4.114817 8.033592 3.270490
v 6.972070 14.056540 2.454668
v 5.910984 11.007242 3.029709
v 4.928115 4.617928 1.057206
v 6.274559 12.037942 1.814266
v 2.713748 11.411852 2.391252
v 3.003957 10.713841 1.701347
v 3.099160 2.899555 3.171560
v 5.299393 4.632284 3.196229
v 5.702000 4.651874 2.944620
v 5.443111 4.955329 1.354460
v 5.675460 5.475841 1.926890
v 3.336869 5.018408 2.636304
v 5.830478 2.748676 1.625462
v 6.549807 3.089869 0.905266
v 6.614380 3.261758 3.318986
v 5.029859 2.905114 3.472938
v 5.979324 4.643937 2.478256
v 5.785012 3.729297 1.068264
v 3.976788 4.704606 3.295097
v 3.269686 3.848600 1.364980
v 6.775199 14.332210 3.098339
v 2.710012 12.959636 3.240301
v 6.629532 2.997274 3.408479
v 3.550980 8.651037 3.002004
v 4.686918 5.674873 3.303605
v 4.081987 10.996378 0.845860
v 4.996098 9.354541 3.353931
v 2.903286 2.826756 2.879640
v 4.636212 12.202096 0.542757
v 3.296983 5.192007 2.067374
v 6.744034 2.831456 1.633941
v 4.533583 12.565303 0.192471
v 3.137953 11.160075 2.963555
v 4.081985 11.682395 3.588471
v 6.407778 12.669066 2.617087
v 5.658372 7.282889 1.955348
v 5.673235 11.452412 1.070215
v 2.964935 10.479173 2.194391
v 3.619986 5.321550 2.981475
v 5.182934 6.294088 3.111321
v 5.907217 4.568473 1.637152
v 6.824642 2.856237 2.729745
v 4.263301 2.925251 0.971632
v 6.323879 3.199627 3.518159
v 6.550864 13.140901 1.581903
v 3.035830 3.840173 2.745781
v 2.931297 2.758669 2.167925
v 2.887321 2.846960 1.629310
v 6.792818 2.973848 1.088772
v 6.690784 3.352013 1.156961
v 3.411606 2.728507 3.124798
v 4.201633 2.844202 1.000140
v 5.830478 2.748676 1.625462
v 6.549807 3.089869 0.905266
v 6.744034 2.831456 1.633941
v 2.931297 2.758669 2.167925
vn 0.4213 -0.6495 -0.6329
vn 0.4353 -0.5582 -0.7063
vn 0.9710 -0.2378 0.0258
vn 0.9968 0.0082 0.0799
vn 0.9931 -0.0931 -0.0710
vn 0.8838 -0.0653 -0.4633
vn 0.3670 -0.0264 -0.9299
vn -0.1005 -0.1989 -0.9749
vn -0.0243 -0.0509 -0.9984
vn 0.8437 -0.3045 -0.4422
vn -0.8158 -0.5411 0.2042
vn -0.9624 -0.1266 -0.2405
vn -0.9770 -0.1519 -0.1496
vn -0.8230 -0.3206 0.4690
vn -0.7788 -0.2027 -0.5936
vn 0.1363 -0.0034 -0.9907
vn 0.5255 0.0801 0.8470
vn -0.8065 -0.0135 -0.5911
vn -0.9479 -0.0196 -0.3180
vn -0.4430 -0.0147 0.8964
vn -0.9064 -0.4225 0.0047
vn -0.9740 0.2259 0.0161
vn 0.8746 0.1248 -0.4685
vn 0.8518 0.1428 0.5041
vn -0.2235 0.0531 -0.9733
vn 0.0619 -0.9735 0.2201
vn -0.0037 -0.3293 -0.9442
vn 0.0569 -0.9672 -0.2475
vn 0.8580 0.5117 0.0434
vn 0.8291 0.5143 0.2192
vn 0.9404 0.2867 -0.1830
vn 0.8276 0.5531 -0.0952
vn 0.0264 0.2371 0.9711
vn 0.4253 0.4770 0.7691
vn -0.2546 -0.1338 0.9577
vn 0.6798 -0.6995 -0.2204
vn -0.4984 -0.0797 0.8633
vn 0.4384 -0.1323 0.8890
vn 0.9917 -0.1281 0.0132
vn 0.9884 -0.1424 -0.0521
vn 0.5042 0.0435 -0.8625
vn 0.4011 -0.0753 -0.9129
vn 0.3123 -0.1150 -0.9430
vn 0.6766 -0.6590 -0.3285
vn 0.8147 -0.1224 -0.5668
vn -0.9547 -0.0809 0.2863
vn -0.5140 -0.1516 -0.8443
vn -0.0829 -0.1321 0.9878
vn 0.0353 -0.0864 0.9956
vn -0.8459 0.2594 0.4660
vn -0.7798 0.2139 0.5884
vn 0.9681 -0.0805 0.2372
vn 0.8555 -0.1314 0.5009
vn 0.7323 -0.1015 0.6734
vn -0.6283 0.0318 0.7773
vn -0.2757 -0.0046 -0.9612
vn -0.7280 0.1987 -0.6562
vn 0.3222 0.2995 -0.8981
vn 0.9546 0.2779 -0.1068
vn -0.8625 0.1961 -0.4665
vn -0.9552 0.2576 0.1456
vn -0.1042 0.0372 0.9939
vn 0.7075 0.5750 0.4109
vn 0.8121 0.5708 -0.1208
vn -0.7737 0.0778 -0.6288
vn -0.4411 -0.2380 0.8653
vn 0.9222 -0.1007 -0.3733
vn -0.3749 -0.8087 0.4532
vn 0.9576 0.1086 0.2670
vn 0.9591 0.1385 0.2469
vn 0.7023 -0.6342 -0.3233
vn 0.8705 -0.4842 0.0879
vn 0.5538 -0.1457 0.8198
vn 0.9577 -0.2518 0.1390
vn -0.0234 0.0084 0.9997
vn -0.0846 -0.0065 0.9964
vn 0.7823 -0.2314 -0.5783
vn -0.9586 -0.2201 -0.1806
vn -0.3931 -0.3544 -0.8484
vn -0.3392 -0.3841 -0.8587
vn -0.6914 -0.1061 -0.7146
vn -0.7532 -0.0236 -0.6573
vn -0.9999 0.0006 -0.0159
vn -0.9966 0.0261 0.0778
vn 0.4085 -0.0473 0.9115
vn -0.9017 -0.0214 0.4319
vn -0.7502 -0.1135 0.6514
vn -0.3692 0.0228 -0.9291
vn -0.2703 -0.7822 -0.5613
vn -0.2388 -0.1555 -0.9585
vn 0.6798 0.3411 -0.6492
vn 0.4731 0.0526 -0.8794
vn 0.9565 0.2344 -0.1736
vn -0.5740 0.1285 -0.8087
vn -0.0427 0.1985 -0.9792
vn 0.0643 -0.9782 0.1973
vn -0.1347 -0.4776 0.8682
vn 0.3106 0.5661 -0.7636
vn 0.0463 0.0323 -0.9984
vn -0.9917 0.1273 -0.0184
vn 0.4936 0.3040 0.8148
vn 0.4438 0.4928 0.7485
vn 0.9448 -0.3277 -0.0010
vn 0.7839 -0.6194 -0.0437
vn 0.8810 0.1499 0.4487
vn 0.6976 -0.6832 -0.2159
vn -0.5221 -0.0729 0.8497
vn -0.7996 -0.5673 0.1971
vn 0.9234 -0.3810 -0.0460
vn 0.8659 -0.3058 0.3958
vn 0.8250 0.0167 -0.5649
vn 0.3490 -0.1661 -0.9223
vn 0.3080 -0.2244 -0.9245
vn 0.8171 -0.1235 -0.5631
vn -0.8070 -0.4547 -0.3768
vn -0.0632 -0.2159 -0.9744
vn -0.3915 -0.1005 -0.9147
vn -0.4804 -0.5662 -0.6698
vn 0.0279 -0.1108 0.9935
vn -0.7919 0.0464 0.6088
vn -0.4695 0.1690 0.8666
vn 0.3602 0.1163 0.9256
vn 0.2848 0.0688 0.9561
vn 0.7343 0.1653 0.6583
vn 0.4115 -0.0470 0.9102
vn 0.6896 0.3741 -0.6201
vn 0.2908 0.5075 -0.8111
vn -0.7526 0.2165 -0.6218
vn -0.9392 0.2114 -0.2706
vn -0.9847 0.1694 -0.0416
vn 0.0901 -0.9958 0.0159
vn 0.0440 -0.9974 0.0575
vn 0.0601 -0.4040 0.9128
vn -0.0534 0.0817 0.9952
vn -0.0290 0.0815 0.9963
vn -0.0642 0.0383 0.9972
vn 0.3894 0.9209 -0.0174
vn -0.8371 0.1778 0.5173
vn -0.4319 0.1491 0.8895
vn 0.3319 -0.0869 0.9393
vn -0.7529 -0.5855 0.3005
vn -0.6880 -0.2674 0.6746
vn -0.4074 -0.1944 0.8923
vn -0.2279 -0.9701 0.0838
vn -0.1315 -0.4777 0.8686
vn 0.0605 -0.8056 -0.5894
vn -0.0085 -0.9996 -0.0272
vn -0.0214 -0.9951 -0.0962
vn 0.0873 -0.9254 -0.3687
vn -0.0764 -0.9849 -0.1552
vn 0.6621 0.3023 -0.6857
vt 0.145285 0.354964
vt 0.173544 0.354964
vt 0.173544 0.383223
s 0
usemtl Elephant
f 36/1/1 69/2/1 34/3/1
f 66/1/2 69/2/2 36/3/2
f 82/1/3 72/2/3 41/3/3
f 48/1/4 73/2/4 18/3/4
f 73/1/5 4/2/5 18/3/5
f 8/1/6 73/2/6 5/3/6
f 5/1/7 7/2/7 8/3/7
f 6/1/8 63/2/8 66/3/8
f 7/1/9 63/2/9 6/3/9
f 82/1/10 41/2/10 74/3/10
f 42/1/11 9/2/11 43/3/11
f 75/1/12 15/2/12 10/3/12
f 75/1/13 43/2/13 15/3/13
f 42/1/14 75/2/14 70/3/14
f 13/1/15 43/2/15 11/3/15
f 80/1/16 7/2/16 40/3/16
f 45/1/17 46/2/17 77/3/17
f 13/1/18 14/2/18 15/3/18
f 67/1/19 15/2/19 14/3/19
f 76/1/20 37/2/20 61/3/20
f 16/1/21 84/2/21 65/3/21
f 16/1/22 65/2/22 24/3/22
f 5/1/23 48/2/23 47/3/23
f 18/1/24 46/2/24 54/3/24
f 19/1/25 80/2/25 17/3/25
f 79/1/26 60/2/26 29/3/26
f 31/1/27 80/2/27 51/3/27
f 68/1/28 31/2/28 20/3/28
f 21/1/29 54/2/29 30/3/29
f 54/1/30 52/2/30 30/3/30
f 20/1/31 22/2/31 21/3/31
f 54/1/32 21/2/32 22/3/32
f 25/1/33 81/2/33 45/3/33
f 45/1/34 81/2/34 52/3/34
f 71/1/35 27/2/35 26/3/35
f 36/1/36 34/2/36 35/3/36
f 37/1/37 71/2/37 61/3/37
f 58/1/38 1/2/38 39/3/38
f 4/1/39 73/2/39 41/3/39
f 41/1/40 72/2/40 4/3/40
f 40/1/41 7/2/41 5/3/41
f 6/1/42 8/2/42 7/3/42
f 8/1/43 6/2/43 74/3/43
f 82/1/44 36/2/44 35/3/44
f 73/1/45 8/2/45 41/3/45
f 75/1/46 10/2/46 70/3/46
f 7/1/47 13/2/47 11/3/47
f 64/1/48 27/2/48 71/3/48
f 37/1/49 64/2/49 71/3/49
f 83/1/50 76/2/50 49/3/50
f 83/1/51 44/2/51 76/3/51
f 18/1/52 4/2/52 39/3/52
f 4/1/53 72/2/53 39/3/53
f 39/1/54 77/2/54 18/3/54
f 76/1/55 56/2/55 37/3/55
f 19/1/56 13/2/56 7/3/56
f 16/1/57 24/2/57 17/3/57
f 40/1/58 47/2/58 55/3/58
f 48/1/59 54/2/59 78/3/59
f 14/1/60 57/2/60 24/3/60
f 49/1/61 67/2/61 83/3/61
f 56/1/62 23/2/62 53/3/62
f 46/1/63 52/2/63 54/3/63
f 78/1/64 54/2/64 22/3/64
f 24/1/65 57/2/65 17/3/65
f 59/1/66 70/2/66 71/3/66
f 21/1/67 28/2/67 68/3/67
f 29/1/68 44/2/68 65/3/68
f 52/1/69 79/2/69 30/3/69
f 52/1/70 60/2/70 79/3/70
f 35/1/71 2/2/71 82/3/71
f 2/1/72 38/2/72 82/3/72
f 64/1/73 39/2/73 1/3/73
f 72/1/74 58/2/74 39/3/74
f 37/1/75 56/2/75 62/3/75
f 62/1/76 64/2/76 37/3/76
f 74/1/77 36/2/77 82/3/77
f 43/1/78 75/2/78 42/3/78
f 33/1/79 63/2/79 11/3/79
f 12/1/80 33/2/80 11/3/80
f 15/1/81 43/2/81 13/3/81
f 13/1/82 19/2/82 14/3/82
f 15/1/83 49/2/83 10/3/83
f 15/1/84 67/2/84 49/3/84
f 77/1/85 39/2/85 64/3/85
f 76/1/86 61/2/86 10/3/86
f 61/1/87 70/2/87 10/3/87
f 7/1/88 80/2/88 19/3/88
f 17/1/89 31/2/89 16/3/89
f 17/1/90 80/2/90 31/3/90
f 55/1/91 47/2/91 78/3/91
f 40/1/92 5/2/92 47/3/92
f 18/1/93 54/2/93 48/3/93
f 57/1/94 19/2/94 17/3/94
f 51/1/95 80/2/95 55/3/95
f 29/1/96 60/2/96 53/3/96
f 29/1/97 53/2/97 23/3/97
f 22/1/98 51/2/98 55/3/98
f 80/1/99 40/2/99 55/3/99
f 83/1/100 24/2/100 65/3/100
f 81/1/101 60/2/101 52/3/101
f 45/1/102 52/2/102 46/3/102
f 20/1/103 21/2/103 68/3/103
f 28/1/104 79/2/104 68/3/104
f 28/1/105 30/2/105 79/3/105
f 34/1/106 2/2/106 35/3/106
f 70/1/107 61/2/107 71/3/107
f 3/1/108 9/2/108 42/3/108
f 72/1/109 82/2/109 38/3/109
f 72/1/110 38/2/110 58/3/110
f 73/1/111 48/2/111 5/3/111
f 6/1/112 66/2/112 74/3/112
f 36/1/113 74/2/113 66/3/113
f 41/1/114 8/2/114 74/3/114
f 12/1/115 43/2/115 9/3/115
f 66/1/116 63/2/116 33/3/116
f 63/1/117 7/2/117 11/3/117
f 43/1/118 12/2/118 11/3/118
f 64/1/119 32/2/119 27/3/119
f 76/1/120 10/2/120 49/3/120
f 76/1/121 44/2/121 56/3/121
f 25/1/122 45/2/122 62/3/122
f 45/1/123 77/2/123 62/3/123
f 77/1/124 46/2/124 18/3/124
f 77/1/125 64/2/125 62/3/125
f 47/1/126 48/2/126 78/3/126
f 55/1/127 78/2/127 22/3/127
f 19/1/128 57/2/128 14/3/128
f 14/1/129 24/2/129 67/3/129
f 83/1/130 67/2/130 24/3/130
f 68/1/131 79/2/131 50/3/131
f 79/1/132 29/2/132 50/3/132
f 53/1/133 60/2/133 81/3/133
f 53/1/134 81/2/134 25/3/134
f 25/1/135 56/2/135 53/3/135
f 25/1/136 62/2/136 56/3/136
f 28/1/137 21/2/137 30/3/137
f 83/1/138 65/2/138 44/3/138
f 23/1/139 56/2/139 44/3/139
f 32/1/140 64/2/140 1/3/140
f 70/1/141 3/2/141 42/3/141
f 3/1/142 70/2/142 59/3/142
f 71/1/143 26/2/143 59/3/143
f 65/1/144 84/2/144 29/3/144
f 29/1/145 23/2/145 44/3/145
f 89/1/146 91/2/146 86/3/146
f 90/1/147 88/2/147 93/3/147
f 93/1/148 89/2/148 90/3/148
f 92/1/149 90/2/149 89/3/149
f 93/1/150 85/2/150 89/3/150
f 86/1/151 91/2/151 87/3/151
