# Blender 5.1.0
# www.blender.org
mtllib leg_FR.mtl
o leg_FR
v 5.484844 13.071384 -0.258035
v 6.583624 13.598888 -0.733396
v 6.858806 13.732953 -1.247157
v 6.944221 13.975989 -2.327487
v 2.908847 11.600060 -1.089173
v 5.785501 9.375654 -2.842031
v 5.452511 9.108567 -3.116183
v 3.947360 9.042816 -1.077414
v 4.700289 11.155265 -0.748829
v 5.293507 7.952041 -1.241531
v 5.815923 11.667967 -1.086915
v 3.080352 10.913840 -1.454954
v 4.085241 5.461866 -3.273698
v 3.291790 3.802076 -3.096876
v 5.564328 5.810591 -2.741006
v 5.677299 5.458283 -1.808416
v 6.757924 2.875179 -1.438241
v 6.481836 2.908546 -3.361242
v 3.429249 2.705656 -2.949591
v 5.815011 4.699738 -1.704231
v 4.986717 4.323781 -1.026628
v 3.957963 4.760633 -1.082140
v 3.302166 3.055151 -1.217194
v 3.117932 3.723767 -1.526595
v 4.894793 4.411366 -3.308121
v 5.302164 3.561348 -3.424777
v 4.048450 15.002582 -4.043994
v 2.867086 11.921579 -2.949928
v 4.490384 3.278708 -0.977670
v 5.928166 3.633992 -1.051195
v 6.699384 3.127666 -3.338428
v 2.729623 11.673401 -0.713644
v 5.173032 12.520105 -0.560850
v 3.980887 10.884002 -3.451521
v 6.588131 13.204165 -1.647156
v 6.200343 11.764393 -1.651231
v 4.257877 12.199604 -0.483140
v 6.230083 13.034313 -0.963034
v 3.005637 10.327724 -2.306901
v 4.940024 6.147079 -3.253841
v 3.390801 7.111096 -2.582785
v 3.552462 5.276996 -1.460163
v 3.441299 5.145813 -2.891473
v 4.628404 8.893025 -0.977542
v 5.968840 4.639818 -2.406139
v 3.700468 2.761130 -1.244237
v 3.341932 3.042612 -3.297721
v 3.447320 2.787352 -3.268783
v 3.845266 2.858039 -1.086895
v 6.809809 3.337329 -2.480157
v 6.536113 3.585876 -1.462582
v 6.784492 3.131228 -1.026961
v 2.989003 3.754454 -2.026506
v 6.354212 3.055949 -3.562614
v 6.806290 2.965117 -1.725883
v 7.015825 3.135154 -2.249312
v 2.931351 2.869781 -2.955343
v 2.881288 2.824869 -2.362341
v 2.584128 11.450508 -1.734305
v 3.281418 5.282027 -2.092220
v 4.136035 8.476739 -3.297494
v 6.497359 2.981283 -0.903422
v 2.979126 3.129665 -2.804276
v 5.227479 13.831244 -3.766504
v 5.295207 4.714427 -1.194503
v 3.033240 3.776351 -2.742486
v 2.746011 14.199142 -3.588645
v 6.503786 3.244028 -3.442017
v 4.533583 12.565303 0.192471
v 6.335210 12.223987 -2.587144
v 5.696701 6.975130 -2.308280
v 5.670470 7.737337 -1.816501
v 2.670661 11.540131 -2.389645
v 5.580363 4.799744 -2.979673
v 3.367950 9.185906 -1.573801
v 3.302515 7.375739 -2.133130
v 3.580270 9.464613 -3.057616
v 3.021437 2.894827 -1.453076
v 6.820549 2.898341 -2.757644
v 6.580375 14.188577 -3.187251
v 3.780275 11.278122 -0.880824
v 4.916407 9.805228 -3.412671
v 6.757924 2.875179 -1.438241
v 3.429249 2.705656 -2.949591
v 3.700468 2.761130 -1.244237
v 2.881288 2.824869 -2.362341
vn -0.3081 -0.2378 0.9211
vn -0.8196 -0.0492 -0.5708
vn 0.8982 -0.4388 -0.0277
vn 0.9707 -0.1723 -0.1676
vn 0.4147 -0.1047 -0.9039
vn 0.8866 -0.1314 -0.4435
vn 0.9988 0.0032 0.0484
vn 0.4357 -0.2114 0.8749
vn -0.6710 -0.7176 -0.1867
vn -0.9857 -0.1068 -0.1307
vn -0.1200 -0.1394 -0.9829
vn -0.9348 -0.0736 0.3474
vn -0.9189 0.0170 0.3942
vn -0.5042 -0.0170 -0.8634
vn -0.1967 -0.0016 0.9805
vn -0.9739 0.2173 -0.0658
vn 0.1335 0.0275 -0.9907
vn -0.9595 0.1741 -0.2216
vn 0.9250 -0.3782 0.0373
vn 0.0502 -0.9747 0.2178
vn 0.0576 -0.9982 -0.0148
vn 0.5549 -0.7218 0.4136
vn -0.0876 0.0882 -0.9922
vn -0.0732 0.0324 -0.9968
vn 0.8388 0.5362 0.0946
vn 0.8188 0.5587 0.1318
vn 0.2047 0.2456 0.9475
vn -0.7920 0.1067 -0.6011
vn -0.2295 0.0112 0.9733
vn -0.9943 0.0888 -0.0587
vn 0.6216 0.5381 -0.5692
vn 0.1120 0.4717 -0.8746
vn 0.9667 -0.2406 0.0873
vn 0.8282 0.3138 -0.4643
vn 0.0035 -0.8529 0.5221
vn 0.5428 -0.6189 0.5678
vn 0.5206 -0.5806 0.6260
vn -0.5224 -0.0879 -0.8482
vn 0.7671 -0.5875 0.2576
vn 0.8715 -0.2395 -0.4280
vn 0.8834 -0.2391 0.4030
vn 0.9897 -0.0650 -0.1278
vn 0.8445 0.0082 0.5355
vn -0.1756 -0.3119 0.9337
vn -0.1541 -0.0980 0.9832
vn 0.8041 -0.1371 0.5784
vn -0.7538 -0.4457 0.4828
vn -0.3731 -0.5073 0.7768
vn 0.4240 0.0173 -0.9055
vn 0.6802 0.1786 -0.7109
vn -0.6896 -0.0115 0.7241
vn -0.9804 0.0058 -0.1971
vn -0.9702 -0.0388 0.2392
vn 0.6637 -0.0623 -0.7454
vn -0.9587 0.0199 -0.2837
vn 0.3855 0.0136 0.9226
vn 0.6047 0.5220 0.6016
vn 0.9881 -0.0595 -0.1422
vn -0.5632 0.1523 0.8122
vn -0.8930 0.2334 0.3848
vn -0.6749 0.4596 -0.5773
vn -0.5543 0.1784 -0.8130
vn -0.3838 -0.5856 0.7139
vn 0.0139 -0.8026 -0.5963
vn -0.0860 -0.1472 -0.9854
vn 0.6941 0.7198 0.0109
vn 0.0448 0.0255 0.9987
vn 0.9029 0.4237 -0.0726
vn 0.7088 -0.7032 0.0553
vn -0.3003 -0.9198 -0.2524
vn 0.5376 -0.8137 0.2211
vn 0.2672 -0.5756 0.7728
vn 0.2493 -0.8906 0.3803
vn 0.9655 -0.2601 0.0114
vn 0.7026 -0.1657 -0.6920
vn -0.0516 -0.0070 -0.9986
vn 0.8370 0.0044 0.5471
vn -0.1647 -0.0940 0.9819
vn 0.2348 -0.1052 0.9663
vn 0.3861 -0.2558 0.8863
vn 0.3245 -0.0848 0.9421
vn 0.8296 -0.1314 0.5427
vn -0.9378 -0.2421 0.2488
vn -0.6647 -0.1608 0.7296
vn -0.5938 -0.1144 0.7965
vn 0.1356 -0.0971 -0.9860
vn -0.8012 0.1765 -0.5717
vn 0.6108 -0.0690 -0.7888
vn -0.1443 0.0035 0.9895
vn 0.9442 0.3291 0.0099
vn 0.9603 0.2009 0.1933
vn -0.0606 -0.1628 0.9848
vn 0.6738 -0.6285 -0.3887
vn 0.9801 0.1226 -0.1561
vn 0.3241 0.2794 -0.9038
vn 0.8104 0.5366 -0.2353
vn 0.5331 0.4104 0.7398
vn 0.4178 0.7371 0.5311
vn -0.8060 0.1228 -0.5791
vn -0.1718 0.0077 0.9851
vn -0.6833 0.1430 0.7160
vn -0.9575 0.1341 0.2552
vn 0.0248 0.1476 -0.9887
vn -0.5805 -0.2483 -0.7754
vn 0.8835 0.2061 0.4206
vn -0.0039 0.2176 0.9760
vn 0.2683 -0.9133 0.3064
vn -0.4868 -0.1033 -0.8674
vn -0.8890 -0.2708 -0.3691
vn -0.8592 -0.2294 -0.4574
vn 0.7687 -0.5858 0.2569
vn 0.9347 -0.3402 0.1033
vn 0.9881 -0.1332 0.0770
vn 0.3682 -0.1096 -0.9233
vn 0.9704 -0.1065 0.2169
vn 0.1472 -0.1848 0.9717
vn 0.8129 -0.2921 0.5039
vn -0.9632 -0.1744 0.2044
vn -0.0086 -0.0434 -0.9990
vn -0.1587 -0.0732 -0.9846
vn -0.5674 0.1858 -0.8022
vn 0.2085 0.3903 -0.8968
vn -0.6509 -0.0024 0.7591
vn -0.9806 0.0060 -0.1961
vn 0.4475 -0.0359 -0.8936
vn -0.3971 -0.0006 -0.9178
vn 0.1035 -0.0026 0.9946
vn 0.4523 0.0259 0.8915
vn -0.9872 0.0611 0.1475
vn -0.9818 0.1539 -0.1112
vn -0.2242 -0.9684 0.1091
vn 0.6862 0.2198 0.6934
vn 0.8375 0.1381 -0.5287
vn -0.6651 0.1548 0.7306
vn -0.9586 0.2801 -0.0507
vn -0.9473 0.1924 0.2561
vn 0.0595 -0.9970 -0.0502
vn -0.5294 -0.3082 -0.7904
vn -0.3428 -0.5354 0.7719
vn 0.0312 -0.9687 -0.2462
vn 0.7443 0.5721 -0.3446
vn 0.1944 0.3747 0.9065
vn -0.2526 -0.1337 -0.9583
vn -0.3105 -0.9455 -0.0978
vn 0.5472 -0.4712 -0.6917
vn 0.5218 0.1260 -0.8437
vn 0.0389 -0.9989 0.0263
vn -0.1540 -0.9865 0.0566
vt 0.145285 0.354964
vt 0.173544 0.354964
vt 0.173544 0.383223
s 0
usemtl Elephant
f 5/1/1 81/2/1 37/3/1
f 77/1/2 41/2/2 39/3/2
f 3/1/3 35/2/3 4/3/3
f 6/1/4 80/2/4 70/3/4
f 7/1/5 64/2/5 80/3/5
f 70/1/6 71/2/6 6/3/6
f 16/1/7 71/2/7 72/3/7
f 33/1/8 11/2/8 38/3/8
f 59/1/9 73/2/9 12/3/9
f 76/1/10 39/2/10 41/3/10
f 27/1/11 82/2/11 34/3/11
f 76/1/12 75/2/12 39/3/12
f 60/1/13 42/2/13 76/3/13
f 77/1/14 13/2/14 43/3/14
f 22/1/15 29/2/15 8/3/15
f 58/1/16 63/2/16 57/3/16
f 25/1/17 61/2/17 40/3/17
f 60/1/18 43/2/18 53/3/18
f 79/1/19 55/2/19 17/3/19
f 17/1/20 62/2/20 46/3/20
f 17/1/21 19/2/21 79/3/21
f 17/1/22 52/2/22 62/3/22
f 47/1/23 26/2/23 54/3/23
f 26/1/24 47/2/24 13/3/24
f 45/1/25 51/2/25 50/3/25
f 45/1/26 20/2/26 51/3/26
f 30/1/27 65/2/27 21/3/27
f 63/1/28 14/2/28 47/3/28
f 22/1/29 23/2/29 49/3/29
f 66/1/30 63/2/30 53/3/30
f 74/1/31 31/2/31 68/3/31
f 54/1/32 26/2/32 68/3/32
f 17/1/33 55/2/33 52/3/33
f 79/1/34 50/2/34 56/3/34
f 49/1/35 46/2/35 62/3/35
f 1/1/36 33/2/36 2/3/36
f 38/1/37 2/2/37 33/3/37
f 77/1/38 34/2/38 61/3/38
f 3/1/39 2/2/39 35/3/39
f 70/1/40 80/2/40 4/3/40
f 38/1/41 36/2/41 35/3/41
f 6/1/42 71/2/42 15/3/42
f 65/1/43 16/2/43 10/3/43
f 9/1/44 37/2/44 81/3/44
f 81/1/45 8/2/45 9/3/45
f 10/1/46 72/2/46 11/3/46
f 59/1/47 12/2/47 5/3/47
f 12/1/48 81/2/48 5/3/48
f 40/1/49 74/2/49 25/3/49
f 74/1/50 40/2/50 15/3/50
f 42/1/51 22/2/51 75/3/51
f 41/1/52 43/2/52 60/3/52
f 42/1/53 75/2/53 76/3/53
f 15/1/54 7/2/54 6/3/54
f 43/1/55 41/2/55 77/3/55
f 65/1/56 10/2/56 44/3/56
f 65/1/57 51/2/57 20/3/57
f 71/1/58 16/2/58 15/3/58
f 23/1/59 22/2/59 42/3/59
f 24/1/60 42/2/60 60/3/60
f 63/1/61 47/2/61 57/3/61
f 47/1/62 14/2/62 13/3/62
f 23/1/63 46/2/63 49/3/63
f 54/1/64 18/2/64 48/3/64
f 48/1/65 47/2/65 54/3/65
f 50/1/66 51/2/66 56/3/66
f 30/1/67 21/2/67 29/3/67
f 55/1/68 51/2/68 52/3/68
f 55/1/69 79/2/69 56/3/69
f 19/1/70 57/2/70 48/3/70
f 1/1/71 69/2/71 37/3/71
f 1/1/72 37/2/72 33/3/72
f 32/1/73 37/2/73 69/3/73
f 70/1/74 35/2/74 36/3/74
f 7/1/75 80/2/75 6/3/75
f 61/1/76 25/2/76 13/3/76
f 10/1/77 16/2/77 72/3/77
f 44/1/78 9/2/78 8/3/78
f 10/1/79 9/2/79 44/3/79
f 33/1/80 9/2/80 11/3/80
f 9/1/81 10/2/81 11/3/81
f 11/1/82 72/2/82 36/3/82
f 73/1/83 39/2/83 12/3/83
f 8/1/84 12/2/84 75/3/84
f 12/1/85 8/2/85 81/3/85
f 27/1/86 64/2/86 82/3/86
f 66/1/87 43/2/87 14/3/87
f 40/1/88 7/2/88 15/3/88
f 8/1/89 29/2/89 44/3/89
f 45/1/90 15/2/90 16/3/90
f 45/1/91 16/2/91 20/3/91
f 49/1/92 62/2/92 29/3/92
f 79/1/93 18/2/93 31/3/93
f 31/1/94 50/2/94 79/3/94
f 13/1/95 25/2/95 26/3/95
f 31/1/96 45/2/96 50/3/96
f 30/1/97 51/2/97 65/3/97
f 30/1/98 52/2/98 51/3/98
f 14/1/99 63/2/99 66/3/99
f 22/1/100 49/2/100 29/3/100
f 23/1/101 24/2/101 78/3/101
f 53/1/102 78/2/102 24/3/102
f 25/1/103 68/2/103 26/3/103
f 67/1/104 34/2/104 28/3/104
f 55/1/105 56/2/105 51/3/105
f 30/1/106 29/2/106 62/3/106
f 5/1/107 37/2/107 32/3/107
f 34/1/108 77/2/108 28/3/108
f 39/1/109 73/2/109 77/3/109
f 73/1/110 28/2/110 77/3/110
f 2/1/111 38/2/111 35/3/111
f 70/1/112 4/2/112 35/3/112
f 36/1/113 72/2/113 70/3/113
f 82/1/114 64/2/114 7/3/114
f 71/1/115 70/2/115 72/3/115
f 37/1/116 9/2/116 33/3/116
f 38/1/117 11/2/117 36/3/117
f 39/1/118 75/2/118 12/3/118
f 82/1/119 40/2/119 34/3/119
f 40/1/120 61/2/120 34/3/120
f 14/1/121 43/2/121 13/3/121
f 74/1/122 68/2/122 25/3/122
f 75/1/123 22/2/123 8/3/123
f 41/1/124 60/2/124 76/3/124
f 7/1/125 40/2/125 82/3/125
f 61/1/126 13/2/126 77/3/126
f 21/1/127 44/2/127 29/3/127
f 44/1/128 21/2/128 65/3/128
f 58/1/129 78/2/129 53/3/129
f 53/1/130 63/2/130 58/3/130
f 78/1/131 58/2/131 46/3/131
f 20/1/132 16/2/132 65/3/132
f 74/1/133 15/2/133 45/3/133
f 42/1/134 24/2/134 23/3/134
f 43/1/135 66/2/135 53/3/135
f 24/1/136 60/2/136 53/3/136
f 19/1/137 18/2/137 79/3/137
f 48/1/138 57/2/138 47/3/138
f 23/1/139 78/2/139 46/3/139
f 48/1/140 18/2/140 19/3/140
f 45/1/141 31/2/141 74/3/141
f 30/1/142 62/2/142 52/3/142
f 27/1/143 34/2/143 67/3/143
f 19/1/144 58/2/144 57/3/144
f 54/1/145 31/2/145 18/3/145
f 54/1/146 68/2/146 31/3/146
f 85/1/147 84/2/147 83/3/147
f 84/1/148 85/2/148 86/3/148
