# Blender 5.1.0
# www.blender.org
mtllib leg_BL.mtl
o leg_BL
v -5.582510 10.439647 0.768285
v -4.632781 9.228457 1.383071
v -8.139354 9.978554 1.292879
v -4.803385 5.102150 2.323004
v -4.870940 6.824564 2.387923
v -8.367491 11.676120 3.282940
v -7.422727 11.141881 3.597960
v -5.434142 10.960627 3.594563
v -4.629839 12.149457 3.749313
v -4.043243 10.666974 2.852312
v -7.125560 5.191010 1.527737
v -4.923745 7.440134 1.567984
v -4.645442 4.459398 1.383505
v -5.201237 4.826006 1.341705
v -7.277695 3.244933 2.811995
v -7.485632 3.320529 1.984811
v -7.039410 3.276145 3.381303
v -3.932863 3.537676 2.285716
v -4.288797 3.896644 3.351211
v -5.557365 4.552175 3.367234
v -7.506083 16.016016 3.661460
v -4.139321 3.241158 1.791047
v -4.105834 3.459285 2.955102
v -3.431044 12.731912 3.903854
v -4.136521 11.253013 3.329396
v -6.356998 12.931184 3.938249
v -4.560890 10.347673 0.690058
v -3.792473 10.465289 1.751080
v -3.962112 10.359305 0.750878
v -2.997190 11.406700 3.381670
v -3.683995 10.809455 2.802119
v -4.709589 9.923088 1.062073
v -8.934473 11.319057 1.038810
v -10.062084 13.785819 1.997170
v -2.975038 10.951667 2.953081
v -5.079118 7.113348 2.930523
v -9.306745 11.456262 1.341351
v -7.960789 8.682386 3.052612
v -4.071567 10.227244 1.565311
v -7.382875 7.734562 1.469383
v -5.319462 8.217709 1.392448
v -4.379101 3.399042 3.755320
v -7.338081 3.313004 1.480138
v -4.981550 4.994064 2.930006
v -6.591784 3.018298 2.054678
v -6.979493 3.931697 3.385116
v -6.982808 3.879451 1.235673
v -5.287996 3.575059 3.627360
v -9.757441 12.220526 1.572537
v -9.409323 13.871961 2.880021
v -8.424604 13.271516 3.553223
v -6.841321 14.328900 4.040921
v -6.239618 15.129529 4.069006
v -4.140856 15.157534 4.141779
v -4.010874 3.310806 2.489447
v -5.681695 3.809340 0.921567
v -8.289141 11.104352 0.872360
v -8.029728 8.357401 2.442234
v -7.678381 7.475721 1.775967
v -6.120413 8.889811 3.476427
v -7.294741 4.660384 1.700225
v -4.899214 5.384651 1.645808
v -5.852652 3.225774 1.031865
v -7.319493 3.541744 3.249205
v -7.339466 9.580563 1.213073
v -5.062679 5.376312 2.877023
v -4.662333 8.771727 2.590800
v -8.400708 9.712157 1.635313
v -4.826847 8.993507 3.048777
v -5.247581 5.337489 1.449204
v -7.350983 4.875413 2.514357
v -4.284434 3.221979 3.152586
v -6.680386 3.071515 3.206607
v -4.145277 3.592366 1.071429
v -4.357006 3.496301 0.845927
v -6.870213 4.989803 3.298253
v -4.161770 3.479238 3.639171
v -9.757395 12.796184 2.229926
v -8.805513 15.463057 3.004689
v -6.846806 10.437648 0.959830
v -4.182078 3.303421 1.148772
v -5.874463 5.265467 3.304292
v -7.252925 4.995559 3.027203
vn -0.0133 -0.0779 0.9969
vn -0.0345 -0.0091 0.9994
vn -0.1221 -0.1147 0.9859
vn -0.3956 -0.1672 0.9031
vn -0.1358 -0.4121 -0.9010
vn 0.3295 -0.5640 0.7572
vn -0.1632 -0.1319 -0.9777
vn -0.6608 -0.2578 -0.7049
vn -0.5122 -0.4432 -0.7357
vn -0.3452 -0.3684 -0.8632
vn -0.0048 -0.1374 -0.9905
vn -0.3544 -0.0772 0.9319
vn 0.4681 -0.0228 0.8834
vn 0.3535 -0.0312 -0.9349
vn -0.0913 0.2326 0.9683
vn 0.4562 0.2224 -0.8616
vn 0.0637 -0.9967 0.0509
vn 0.0900 -0.9959 -0.0044
vn -0.2658 -0.9638 -0.0213
vn -0.0654 -0.7118 0.6993
vn -0.1393 0.0008 0.9903
vn 0.8285 -0.5537 0.0839
vn 0.8652 0.4845 -0.1295
vn 0.2433 0.5234 0.8166
vn 0.9212 -0.3465 -0.1768
vn 0.6611 -0.7496 -0.0327
vn -0.5789 -0.2560 -0.7742
vn -0.6579 -0.4443 -0.6081
vn 0.9089 -0.1384 0.3935
vn 0.9375 0.0237 0.3471
vn -0.8980 -0.3382 0.2815
vn 0.1441 -0.2230 0.9641
vn 0.9431 -0.3203 0.0887
vn 0.7675 -0.3268 0.5515
vn -0.0311 -0.0261 -0.9992
vn -0.9613 -0.1831 0.2061
vn -0.9563 -0.1852 0.2262
vn 0.0339 0.3680 -0.9292
vn 0.0792 -0.9917 -0.1014
vn -0.3216 -0.9467 0.0190
vn -0.2389 -0.1123 -0.9645
vn -0.4018 0.0314 0.9152
vn 0.7397 0.5907 0.3223
vn 0.9624 0.2706 -0.0233
vn 0.4923 0.5320 -0.6889
vn -0.9827 0.0711 0.1712
vn -0.7948 -0.1041 0.5978
vn 0.9859 -0.1470 -0.0799
vn 0.0052 -0.0961 0.9954
vn 0.0146 -0.4175 0.9085
vn 0.0504 -0.3518 0.9347
vn -0.1144 -0.1194 0.9862
vn -0.2370 -0.0912 0.9672
vn -0.6195 -0.1526 0.7700
vn 0.3870 -0.8874 0.2506
vn 0.0138 -0.7593 0.6506
vn 0.5165 -0.8137 0.2666
vn 0.4700 -0.3269 -0.8199
vn -0.1854 -0.1789 -0.9662
vn -0.1152 -0.6310 -0.7672
vn -0.1156 -0.6314 -0.7668
vn 0.9986 0.0404 -0.0339
vn 0.9869 -0.0919 -0.1326
vn -0.7645 -0.4713 -0.4398
vn -0.8668 -0.4403 -0.2341
vn -0.6034 -0.1423 0.7846
vn -0.7152 -0.1771 0.6761
vn 0.4331 -0.1143 0.8941
vn 0.3637 -0.2234 0.9043
vn 0.4321 0.2132 0.8763
vn -0.9496 -0.1903 -0.2490
vn -0.6106 -0.0620 -0.7895
vn -0.6803 -0.0855 -0.7279
vn 0.0069 -0.0470 0.9989
vn 0.4920 -0.0049 -0.8706
vn -0.0936 -0.1584 -0.9829
vn -0.2937 -0.2175 -0.9308
vn 0.2874 0.3334 -0.8979
vn 0.4086 0.5351 -0.7394
vn 0.3307 0.2227 -0.9171
vn 0.3647 -0.9308 0.0258
vn 0.8991 -0.4200 -0.1235
vn -0.8955 -0.4034 0.1882
vn -0.9915 0.0441 0.1226
vn -0.1403 0.0071 0.9901
vn 0.9407 0.3326 0.0672
vn 0.8007 0.5485 -0.2407
vn -0.9567 0.0766 -0.2808
vn -0.7872 0.0512 -0.6146
vn -0.7004 0.1370 -0.7005
vn -0.0271 0.0759 0.9967
vn -0.9470 -0.2417 0.2118
vn -0.5067 0.1254 0.8530
vn 0.9645 -0.1205 0.2351
vn 0.9513 0.1585 0.2644
vn 0.4724 -0.8228 0.3159
vn -0.0054 -0.2461 0.9692
vn 0.0587 -0.6829 0.7281
vn 0.0382 -0.1543 0.9873
vn 0.0876 -0.6737 -0.7338
vn 0.4782 -0.8748 -0.0776
vn 0.6702 -0.2490 -0.6992
vn 0.1777 -0.1298 -0.9755
vn -0.1105 -0.3606 -0.9261
vn -0.0332 -0.1786 -0.9834
vn -0.0197 -0.2729 -0.9618
vn 0.9048 -0.0045 0.4257
vn -0.6615 -0.1465 0.7355
vn -0.5752 -0.1160 0.8097
vn 0.8950 -0.1466 0.4214
vn 0.9905 0.0066 -0.1374
vn -0.9463 -0.3111 -0.0873
vn -0.8966 -0.3332 0.2918
vn 0.0107 -0.0477 0.9988
vn 0.1444 -0.1040 0.9840
vn 0.2605 -0.1408 0.9551
vn 0.8362 -0.3115 0.4513
vn 0.9857 -0.1643 -0.0380
vn 0.8732 -0.4626 -0.1536
vn 0.4411 0.2716 0.8554
vn 0.9195 0.2385 0.3124
vn -0.1991 0.3699 -0.9075
vn -0.0402 -0.0207 -0.9990
vn 0.4481 -0.0120 0.8939
vn -0.9904 -0.1341 -0.0330
vn 0.0778 -0.8199 -0.5671
vn -0.0573 0.2111 -0.9758
vn 0.0665 -0.9545 0.2908
vn 0.0569 -0.9857 -0.1588
vn -0.4016 -0.8898 0.2169
vn -0.7267 -0.5987 0.3370
vn -0.3139 -0.9463 -0.0777
vn -0.1448 -0.9441 -0.2962
vn -0.5721 0.1256 0.8105
vn -0.5127 0.1525 0.8449
vn 0.8679 0.4799 0.1283
vn -0.1218 0.0937 0.9881
vn -0.9878 0.1195 -0.0998
vn 0.2335 0.5130 0.8260
vn 0.5568 0.5798 0.5948
vn 0.0384 0.2669 0.9629
vn -0.4908 0.1303 0.8614
vn -0.3400 0.0768 0.9373
vn 0.8654 -0.3987 0.3036
vt 0.145285 0.354964
vt 0.173544 0.354964
vt 0.173544 0.383223
s 0
usemtl Elephant
f 52/1/1 26/2/1 54/3/1
f 53/1/2 52/2/2 54/3/2
f 7/1/3 26/2/3 52/3/3
f 6/1/4 7/2/4 51/3/4
f 57/1/5 1/2/5 80/3/5
f 10/1/6 31/2/6 25/3/6
f 40/1/7 3/2/7 65/3/7
f 68/1/8 3/2/8 59/3/8
f 3/1/9 68/2/9 33/3/9
f 33/1/10 57/2/10 3/3/10
f 41/1/11 40/2/11 65/3/11
f 7/1/12 6/2/12 76/3/12
f 36/1/13 82/2/13 66/3/13
f 41/1/14 12/2/14 62/3/14
f 42/1/15 20/2/15 48/3/15
f 70/1/16 62/2/16 14/3/16
f 73/1/17 45/2/17 72/3/17
f 22/1/18 72/2/18 45/3/18
f 16/1/19 73/2/19 15/3/19
f 17/1/20 73/2/20 42/3/20
f 42/1/21 48/2/21 17/3/21
f 77/1/22 72/2/22 23/3/22
f 4/1/23 18/2/23 74/3/23
f 20/1/24 42/2/24 77/3/24
f 22/1/25 74/2/25 18/3/25
f 28/1/26 39/2/26 29/3/26
f 59/1/27 3/2/27 40/3/27
f 68/1/28 37/2/28 33/3/28
f 67/1/29 69/2/29 5/3/29
f 36/1/30 4/2/30 5/3/30
f 38/1/31 49/2/31 58/3/31
f 69/1/32 9/2/32 8/3/32
f 10/1/33 67/2/33 39/3/33
f 10/1/34 25/2/34 67/3/34
f 41/1/35 11/2/35 40/3/35
f 38/1/36 58/2/36 71/3/36
f 71/1/37 83/2/37 38/3/37
f 75/1/38 56/2/38 14/3/38
f 45/1/39 81/2/39 22/3/39
f 16/1/40 45/2/40 73/3/40
f 56/1/41 63/2/41 47/3/41
f 17/1/42 46/2/42 64/3/42
f 4/1/43 44/2/43 19/3/43
f 62/1/44 4/2/44 13/3/44
f 75/1/45 13/2/45 74/3/45
f 83/1/46 71/2/46 64/3/46
f 50/1/47 34/2/47 78/3/47
f 74/1/48 22/2/48 81/3/48
f 54/1/49 26/2/49 24/3/49
f 25/1/50 30/2/50 9/3/50
f 30/1/51 24/2/51 9/3/51
f 7/1/52 60/2/52 26/3/52
f 52/1/53 51/2/53 7/3/53
f 50/1/54 6/2/54 51/3/54
f 28/1/55 31/2/55 10/3/55
f 31/1/56 35/2/56 25/3/56
f 28/1/57 10/2/57 39/3/57
f 2/1/58 41/2/58 32/3/58
f 65/1/59 3/2/59 80/3/59
f 80/1/60 1/2/60 32/3/60
f 1/1/61 27/2/61 32/3/61
f 4/1/62 12/2/62 5/3/62
f 12/1/63 67/2/63 5/3/63
f 58/1/64 37/2/64 68/3/64
f 58/1/65 49/2/65 37/3/65
f 6/1/66 50/2/66 38/3/66
f 78/1/67 38/2/67 50/3/67
f 8/1/68 36/2/68 69/3/68
f 9/1/69 69/2/69 25/3/69
f 44/1/70 66/2/70 82/3/70
f 59/1/71 71/2/71 58/3/71
f 59/1/72 11/2/72 61/3/72
f 40/1/73 11/2/73 59/3/73
f 82/1/74 60/2/74 76/3/74
f 62/1/75 70/2/75 41/3/75
f 56/1/76 75/2/76 63/3/76
f 43/1/77 47/2/77 63/3/77
f 13/1/78 14/2/78 62/3/78
f 13/1/79 75/2/79 14/3/79
f 14/1/80 56/2/80 70/3/80
f 55/1/81 72/2/81 22/3/81
f 55/1/82 22/2/82 18/3/82
f 15/1/83 64/2/83 16/3/83
f 64/1/84 71/2/84 16/3/84
f 17/1/85 48/2/85 46/3/85
f 23/1/86 19/2/86 77/3/86
f 4/1/87 74/2/87 13/3/87
f 61/1/88 43/2/88 16/3/88
f 47/1/89 61/2/89 11/3/89
f 47/1/90 43/2/90 61/3/90
f 20/1/91 82/2/91 76/3/91
f 78/1/92 34/2/92 49/3/92
f 50/1/93 51/2/93 79/3/93
f 55/1/94 18/2/94 23/3/94
f 23/1/95 18/2/95 19/3/95
f 72/1/96 77/2/96 42/3/96
f 24/1/97 26/2/97 9/3/97
f 30/1/98 25/2/98 35/3/98
f 9/1/99 26/2/99 8/3/99
f 27/1/100 29/2/100 32/3/100
f 39/1/101 32/2/101 29/3/101
f 39/1/102 2/2/102 32/3/102
f 2/1/103 12/2/103 41/3/103
f 57/1/104 80/2/104 3/3/104
f 41/1/105 65/2/105 32/3/105
f 80/1/106 32/2/106 65/3/106
f 36/1/107 66/2/107 4/3/107
f 76/1/108 6/2/108 38/3/108
f 76/1/109 38/2/109 83/3/109
f 5/1/110 69/2/110 36/3/110
f 62/1/111 12/2/111 4/3/111
f 68/1/112 59/2/112 58/3/112
f 38/1/113 78/2/113 49/3/113
f 7/1/114 76/2/114 60/3/114
f 26/1/115 60/2/115 8/3/115
f 60/1/116 36/2/116 8/3/116
f 25/1/117 69/2/117 67/3/117
f 67/1/118 12/2/118 2/3/118
f 2/1/119 39/2/119 67/3/119
f 44/1/120 82/2/120 20/3/120
f 44/1/121 4/2/121 66/3/121
f 56/1/122 47/2/122 70/3/122
f 41/1/123 70/2/123 11/3/123
f 60/1/124 82/2/124 36/3/124
f 59/1/125 61/2/125 71/3/125
f 81/1/126 63/2/126 75/3/126
f 11/1/127 70/2/127 47/3/127
f 42/1/128 73/2/128 72/3/128
f 45/1/129 63/2/129 81/3/129
f 73/1/130 17/2/130 15/3/130
f 17/1/131 64/2/131 15/3/131
f 16/1/132 43/2/132 45/3/132
f 43/1/133 63/2/133 45/3/133
f 46/1/134 76/2/134 83/3/134
f 83/1/135 64/2/135 46/3/135
f 19/1/136 18/2/136 4/3/136
f 46/1/137 48/2/137 76/3/137
f 61/1/138 16/2/138 71/3/138
f 77/1/139 44/2/139 20/3/139
f 19/1/140 44/2/140 77/3/140
f 20/1/141 76/2/141 48/3/141
f 21/1/142 79/2/142 51/3/142
f 21/1/143 51/2/143 52/3/143
f 23/1/144 72/2/144 55/3/144
