# Blender 5.1.0
# www.blender.org
mtllib leg_BR.mtl
o leg_BR
v -6.719942 10.456120 -3.654979
v -9.202593 12.641587 -2.832991
v -5.097386 10.464576 -0.496377
v -4.717048 10.122913 -0.882957
v -3.801120 10.468147 -1.823417
v -10.020700 13.673700 -2.021567
v -5.005273 7.078303 -2.876846
v -4.989066 6.360667 -1.761116
v -8.393640 9.401692 -2.554180
v -4.697692 8.877438 -2.763357
v -4.845132 4.900457 -1.570169
v -7.283160 3.244421 -1.615748
v -5.177001 5.116994 -1.449762
v -7.400414 3.206177 -2.733148
v -7.542212 3.354757 -2.359325
v -4.315759 3.616178 -0.945798
v -4.294158 3.339329 -0.992036
v -9.740663 12.151403 -1.268803
v -9.490633 13.869664 -2.768647
v -7.301421 13.955197 -3.942810
v -7.980510 15.138023 -3.582513
v -8.217714 13.445706 -3.636707
v -8.780062 11.334547 -0.799949
v -8.355185 10.752208 -1.045219
v -4.049427 10.365532 -0.683795
v -3.770523 10.890122 -2.968651
v -8.107702 9.423906 -1.447066
v -5.127593 8.741581 -1.325968
v -6.957500 9.627421 -1.180720
v -6.770286 6.748830 -1.481282
v -4.926537 5.567965 -2.532170
v -9.052304 11.038558 -1.369136
v -8.145660 8.794958 -2.037951
v -7.752006 11.319242 -3.506779
v -4.865877 8.967339 -3.084259
v -4.239423 10.871504 -3.259082
v -5.672340 4.172112 -1.036848
v -5.196750 5.428745 -2.950891
v -7.682428 7.144718 -2.662927
v -7.356559 4.666897 -2.325538
v -7.249514 4.766399 -1.773770
v -7.673668 7.619477 -1.752572
v -7.449550 7.522663 -1.532604
v -7.044500 4.846054 -1.501051
v -5.163696 6.882771 -1.523874
v -4.374869 3.455033 -3.760495
v -5.941783 5.740729 -3.241535
v -4.936848 4.941000 -2.962015
v -6.314876 3.030393 -2.995987
v -6.923394 5.130212 -3.269785
v -7.176328 3.375698 -3.408405
v -4.758625 4.968966 -2.268105
v -7.384580 3.427252 -1.498684
v -7.186306 4.781298 -3.049543
v -5.834980 3.477929 -0.913547
v -5.857454 4.409590 -3.425373
v -4.161422 3.557579 -3.536239
v -9.220297 11.699392 -0.625184
v -4.093454 3.685615 -1.633764
v -3.933230 3.472310 -2.361686
v -4.899564 3.233961 -0.969490
v -8.206241 11.311172 -0.531093
v -3.992529 10.738975 -2.832072
v -4.125075 10.205298 -1.914041
v -4.331912 10.002691 -1.182406
v -6.418199 5.234585 -3.325515
v -4.357107 3.305792 -3.651491
v -5.755711 9.988007 -3.497634
v -6.065214 14.360933 -4.099176
v -4.742535 12.034562 -3.739222
v -4.775971 9.555979 -1.159473
v -4.630158 8.784975 -2.291271
v -4.726951 8.736170 -1.484057
v -7.618124 7.973391 -3.209975
v -6.764367 3.189677 -1.321760
v -4.074226 3.279840 -1.850859
v -7.418506 3.432193 -3.163632
v -4.579946 3.513090 -0.822541
v -7.013217 4.166091 -1.301636
v -9.424838 11.705900 -2.212485
v -6.870078 3.206203 -3.405579
v -6.536703 3.019768 -2.097374
v -7.283160 3.244421 -1.615748
v -6.314876 3.030393 -2.995987
v -4.899564 3.233961 -0.969490
v -6.764367 3.189677 -1.321760
v -4.074226 3.279840 -1.850859
v -6.536703 3.019768 -2.097374
vn 0.5262 -0.1199 -0.8419
vn -0.0935 -0.0970 -0.9909
vn -0.2319 -0.8307 0.5061
vn 0.0556 -0.7204 0.6913
vn -0.0880 0.4373 0.8950
vn -0.1936 -0.0634 -0.9790
vn 0.9679 -0.1318 0.2139
vn -0.8064 -0.5236 0.2750
vn -0.7720 -0.2137 -0.5987
vn 0.7988 -0.3213 -0.5087
vn -0.0265 -0.0066 0.9996
vn -0.0955 -0.0682 -0.9931
vn 0.9185 0.1390 0.3703
vn 0.3617 0.0364 0.9316
vn -0.3400 -0.2039 0.9181
vn 0.3436 0.2040 -0.9167
vn -0.9550 -0.1596 -0.2498
vn 0.1744 -0.9782 0.1124
vn 0.1279 -0.9912 -0.0344
vn -0.2523 -0.9658 0.0595
vn 0.8055 0.5465 -0.2289
vn -0.9772 0.1326 0.1657
vn -0.7865 -0.1531 -0.5982
vn 0.9682 -0.0808 0.2368
vn 0.7547 -0.3260 -0.5693
vn 0.0985 -0.1288 -0.9868
vn -0.2567 -0.1149 -0.9596
vn -0.1455 -0.6485 0.7472
vn 0.3989 -0.8639 -0.3076
vn 0.6498 -0.6941 -0.3097
vn 0.3429 -0.3280 0.8802
vn -0.5067 -0.3348 0.7945
vn -0.5435 -0.1153 -0.8315
vn 0.9731 -0.1557 -0.1697
vn 0.8490 -0.0751 -0.5230
vn -0.8923 -0.3587 -0.2740
vn -0.9268 -0.3756 0.0037
vn -0.8956 -0.2747 0.3499
vn -0.4709 -0.0966 -0.8769
vn 0.3799 -0.2078 -0.9014
vn 0.9399 -0.2838 -0.1900
vn 0.9165 -0.3677 0.1573
vn -0.1878 0.2684 0.9448
vn -0.9271 -0.3285 0.1802
vn -0.7764 -0.1200 0.6187
vn -0.7187 -0.1007 0.6880
vn -0.0749 0.0004 0.9972
vn 0.2438 -0.0690 -0.9674
vn 0.5972 -0.1576 0.7865
vn -0.0551 -0.5932 -0.8032
vn 0.7086 0.3910 -0.5873
vn -0.0019 -0.9199 -0.3922
vn -0.1940 -0.9690 -0.1530
vn -0.9803 0.1422 -0.1371
vn -0.4923 -0.7790 -0.3883
vn -0.1274 0.1465 -0.9810
vn -0.0837 0.0905 -0.9924
vn -0.7453 0.2055 0.6343
vn -0.1901 0.2147 0.9580
vn 0.4655 0.5491 -0.6941
vn -0.8041 -0.5229 0.2829
vn -0.8007 -0.1872 -0.5691
vn -0.3554 0.0796 -0.9313
vn 0.9506 0.0225 0.3095
vn -0.5372 -0.1682 -0.8265
vn -0.3828 -0.7319 0.5637
vn -0.5251 -0.6259 0.5766
vn 0.1475 -0.8376 0.5260
vn 0.6179 -0.7836 0.0641
vn 0.4686 -0.4261 0.7738
vn -0.0141 -0.1369 0.9905
vn -0.7313 -0.2811 0.6214
vn -0.2048 -0.1146 0.9721
vn -0.9446 -0.2676 -0.1898
vn -0.9345 -0.1428 -0.3262
vn 0.9018 -0.0509 -0.4292
vn -0.7238 -0.4487 0.5241
vn 0.0230 0.0418 0.9989
vn 0.5166 -0.1310 -0.8461
vn -0.3502 -0.0730 0.9338
vn -0.4276 -0.6436 0.6347
vn 0.0274 0.1385 -0.9900
vn 0.2388 0.4295 0.8709
vn 0.0474 0.3790 0.9242
vn 0.9550 0.1568 -0.2516
vn -0.8952 -0.4089 -0.1771
vn -0.9767 0.1339 0.1676
vn -0.7997 -0.5680 0.1943
vn -0.5976 -0.7967 0.0900
vn -0.1153 -0.2244 -0.9677
vn 0.8158 -0.5434 -0.1979
vn -0.6842 0.1549 -0.7127
vn -0.5370 0.1021 -0.8374
vn 0.9633 -0.0897 0.2529
vn 0.0342 -0.1338 -0.9904
vn -0.2378 -0.1188 -0.9640
vn -0.5821 -0.0942 -0.8076
vn -0.3662 -0.5752 0.7315
vn -0.3266 -0.6989 0.6363
vn -0.1137 -0.4260 0.8976
vn 0.3054 -0.8451 -0.4388
vn 0.7632 -0.6451 0.0371
vn 0.3698 -0.3228 0.8712
vn -0.1613 -0.3132 0.9359
vn -0.0159 -0.1937 0.9809
vn 0.0296 -0.1019 0.9944
vn 0.0352 -0.1065 0.9937
vn -0.8480 -0.2446 -0.4702
vn 0.8657 -0.1173 -0.4866
vn 0.9887 -0.0995 0.1125
vn 0.9844 0.1145 0.1333
vn -0.9126 -0.3905 -0.1211
vn -0.4903 -0.0965 -0.8662
vn 0.2008 -0.2123 -0.9564
vn 0.7797 -0.3066 -0.5460
vn 0.9318 -0.3556 -0.0722
vn 0.9438 -0.3168 0.0940
vn 0.1349 0.5081 -0.8507
vn 0.3514 -0.0717 -0.9335
vn 0.3633 -0.0004 -0.9317
vn -0.9477 -0.3034 0.0987
vn -0.9901 -0.1204 0.0723
vn -0.9661 -0.1452 0.2136
vn -0.2042 -0.1148 0.9722
vn 0.1349 -0.0546 -0.9893
vn 0.3638 -0.1056 0.9255
vn -0.1256 -0.6529 0.7470
vn -0.0542 -0.4159 0.9078
vn 0.4133 0.1502 -0.8981
vn 0.9678 0.2105 -0.1379
vn 0.6377 -0.7622 -0.1112
vn -0.1724 -0.9835 -0.0542
vn -0.9631 0.1825 -0.1977
vn 0.4557 -0.1119 0.8831
vn -0.4650 -0.8447 -0.2652
vn -0.7630 0.1837 -0.6197
vn -0.1177 0.0401 -0.9922
vn 0.8758 0.4798 0.0522
vn 0.8644 0.4850 -0.1327
vn 0.8437 0.5139 0.1550
vn 0.8150 0.4879 0.3126
vn 0.5745 0.5371 0.6176
vn -0.8104 0.1302 0.5712
vn -0.0763 0.1917 0.9785
vn 0.1301 -0.5744 0.8082
vn -0.1908 -0.9691 0.1563
vn 0.1007 -0.9940 0.0426
vn 0.1037 -0.9945 0.0138
vn -0.0163 -0.9777 0.2094
vt 0.145285 0.354964
vt 0.173544 0.354964
vt 0.173544 0.383223
s 0
usemtl Elephant
f 26/1/1 36/2/1 70/3/1
f 69/1/2 1/2/2 20/3/2
f 62/1/3 4/2/3 3/3/3
f 25/1/4 3/2/4 4/3/4
f 44/1/5 37/2/5 13/3/5
f 34/1/6 1/2/6 50/3/6
f 8/1/7 31/2/7 73/3/7
f 9/1/8 32/2/8 18/3/8
f 80/1/9 2/2/9 74/3/9
f 35/1/10 63/2/10 10/3/10
f 13/1/11 30/2/11 44/3/11
f 1/1/12 66/2/12 50/3/12
f 11/1/13 8/2/13 45/3/13
f 11/1/14 45/2/14 13/3/14
f 75/1/15 55/2/15 53/3/15
f 56/1/16 38/2/16 48/3/16
f 54/1/17 40/2/17 39/3/17
f 76/1/18 17/2/18 61/3/18
f 49/1/19 67/2/19 76/3/19
f 12/1/20 14/2/20 82/3/20
f 52/1/21 57/2/21 48/3/21
f 41/1/22 40/2/22 53/3/22
f 2/1/23 6/2/23 19/3/23
f 59/1/24 76/2/24 60/3/24
f 67/1/25 46/2/25 57/3/25
f 1/1/26 69/2/26 68/3/26
f 22/1/27 20/2/27 34/3/27
f 4/1/28 62/2/28 24/3/28
f 5/1/29 63/2/29 26/3/29
f 64/1/30 63/2/30 5/3/30
f 71/1/31 28/2/31 73/3/31
f 32/1/32 27/2/32 24/3/32
f 74/1/33 50/2/33 54/3/33
f 10/1/34 72/2/34 7/3/34
f 31/1/35 38/2/35 7/3/35
f 74/1/36 9/2/36 80/3/36
f 32/1/37 9/2/37 33/3/37
f 27/1/38 33/2/38 42/3/38
f 50/1/39 74/2/39 34/3/39
f 35/1/40 70/2/40 36/3/40
f 10/1/41 64/2/41 72/3/41
f 72/1/42 64/2/42 65/3/42
f 37/1/43 44/2/43 79/3/43
f 33/1/44 39/2/44 42/3/44
f 44/1/45 42/2/45 41/3/45
f 43/1/46 42/2/46 44/3/46
f 44/1/47 30/2/47 43/3/47
f 66/1/48 68/2/48 47/3/48
f 45/1/49 8/2/49 73/3/49
f 46/1/50 67/2/50 81/3/50
f 48/1/51 38/2/51 31/3/51
f 49/1/52 81/2/52 67/3/52
f 14/1/53 81/2/53 49/3/53
f 15/1/54 40/2/54 77/3/54
f 77/1/55 81/2/55 14/3/55
f 56/1/56 46/2/56 51/3/56
f 56/1/57 51/2/57 50/3/57
f 79/1/58 41/2/58 53/3/58
f 55/1/59 37/2/59 79/3/59
f 48/1/60 57/2/60 46/3/60
f 58/1/61 18/2/61 32/3/61
f 6/1/62 2/2/62 80/3/62
f 21/1/63 20/2/63 22/3/63
f 59/1/64 16/2/64 17/3/64
f 2/1/65 22/2/65 34/3/65
f 23/1/66 58/2/66 32/3/66
f 32/1/67 24/2/67 23/3/67
f 4/1/68 65/2/68 25/3/68
f 5/1/69 25/2/69 64/3/69
f 4/1/70 71/2/70 65/3/70
f 29/1/71 71/2/71 24/3/71
f 27/1/72 42/2/72 43/3/72
f 27/1/73 43/2/73 29/3/73
f 6/1/74 80/2/74 18/3/74
f 74/1/75 54/2/75 39/3/75
f 72/1/76 31/2/76 7/3/76
f 27/1/77 32/2/77 33/3/77
f 13/1/78 45/2/78 30/3/78
f 47/1/79 35/2/79 7/3/79
f 53/1/80 55/2/80 79/3/80
f 53/1/81 12/2/81 75/3/81
f 47/1/82 56/2/82 66/3/82
f 16/1/83 13/2/83 78/3/83
f 37/1/84 78/2/84 13/3/84
f 48/1/85 31/2/85 52/3/85
f 14/1/86 15/2/86 77/3/86
f 40/1/87 15/2/87 53/3/87
f 53/1/88 15/2/88 12/3/88
f 15/1/89 14/2/89 12/3/89
f 81/1/90 51/2/90 46/3/90
f 57/1/91 60/2/91 67/3/91
f 50/1/92 51/2/92 77/3/92
f 21/1/93 22/2/93 19/3/93
f 59/1/94 17/2/94 76/3/94
f 69/1/95 70/2/95 68/3/95
f 34/1/96 20/2/96 1/3/96
f 19/1/97 22/2/97 2/3/97
f 23/1/98 24/2/98 62/3/98
f 23/1/99 62/2/99 58/3/99
f 4/1/100 24/2/100 71/3/100
f 26/1/101 63/2/101 36/3/101
f 65/1/102 64/2/102 25/3/102
f 71/1/103 73/2/103 65/3/103
f 27/1/104 29/2/104 24/3/104
f 71/1/105 29/2/105 28/3/105
f 28/1/106 29/2/106 30/3/106
f 28/1/107 30/2/107 45/3/107
f 39/1/108 9/2/108 74/3/108
f 10/1/109 7/2/109 35/3/109
f 73/1/110 31/2/110 72/3/110
f 8/1/111 11/2/111 52/3/111
f 80/1/112 9/2/112 18/3/112
f 34/1/113 74/2/113 2/3/113
f 70/1/114 35/2/114 68/3/114
f 35/1/115 36/2/115 63/3/115
f 10/1/116 63/2/116 64/3/116
f 65/1/117 73/2/117 72/3/117
f 48/1/118 46/2/118 56/3/118
f 47/1/119 68/2/119 35/3/119
f 7/1/120 38/2/120 47/3/120
f 33/1/121 9/2/121 39/3/121
f 39/1/122 40/2/122 42/3/122
f 41/1/123 42/2/123 40/3/123
f 30/1/124 29/2/124 43/3/124
f 66/1/125 1/2/125 68/3/125
f 28/1/126 45/2/126 73/3/126
f 61/1/127 55/2/127 75/3/127
f 61/1/128 78/2/128 55/3/128
f 38/1/129 56/2/129 47/3/129
f 52/1/130 31/2/130 8/3/130
f 60/1/131 76/2/131 67/3/131
f 49/1/132 82/2/132 14/3/132
f 77/1/133 40/2/133 54/3/133
f 16/1/134 78/2/134 17/3/134
f 77/1/135 51/2/135 81/3/135
f 50/1/136 77/2/136 54/3/136
f 50/1/137 66/2/137 56/3/137
f 52/1/138 59/2/138 60/3/138
f 60/1/139 57/2/139 52/3/139
f 11/1/140 59/2/140 52/3/140
f 11/1/141 16/2/141 59/3/141
f 11/1/142 13/2/142 16/3/142
f 79/1/143 44/2/143 41/3/143
f 55/1/144 78/2/144 37/3/144
f 61/1/145 17/2/145 78/3/145
f 83/1/146 88/2/146 86/3/146
f 85/1/147 88/2/147 87/3/147
f 87/1/148 88/2/148 84/3/148
f 85/1/149 86/2/149 88/3/149
